<svg width="112" height="110" viewBox="0 0 112 110" fill="none" xmlns="http://www.w3.org/2000/svg">
<path d="M100.066 24.1475C103.514 32.4628 101.871 42.3887 95.1088 49.151C87.6635 56.5963 76.411 57.7611 67.6643 52.8251L61.3406 59.7311L65.8524 64.2609L68.5487 61.5646C69.9256 60.1841 72.1617 60.1841 73.5386 61.5646L95.4036 83.6525C96.784 85.0294 96.784 87.2655 95.4036 88.6424L85.4237 98.6222C84.0468 100.003 81.8107 100.003 80.4338 98.6222L58.5689 76.5343C57.1884 75.1574 57.1884 72.9213 58.5689 71.5444L61.0315 69.0818L56.7318 64.7714L26.494 97.8061C23.7366 100.564 19.268 100.564 16.5142 97.8061L14.0192 95.3112C11.2619 92.5538 11.2619 88.0852 14.0192 85.3314L48.4668 56.4812L25.5881 33.5413L18.362 33.5378L10 20.0923L16.7299 13.3517L30.4809 21.7676L30.5708 28.8426L53.7156 52.0773L60.4491 46.4403C53.8666 37.4671 54.5532 24.827 62.6636 16.7166C69.3935 9.98671 79.2655 8.31502 87.5592 11.6979L72.7333 26.3189L85.2116 38.7973L100.066 24.1475ZM22.295 88.8509C20.9181 87.474 18.6856 87.474 17.3051 88.8509C15.9246 90.2314 15.9246 92.4639 17.3051 93.8444C18.6856 95.2213 20.9181 95.2213 22.295 93.8444C23.6755 92.4603 23.6755 90.2278 22.295 88.8509Z" fill="url(#paint0_linear_271_6)"/>
<path d="M100.066 24.1475C103.514 32.4628 101.871 42.3887 95.1088 49.151C87.6635 56.5963 76.411 57.7611 67.6643 52.8251L61.3406 59.7311L65.8524 64.2609L68.5487 61.5646C69.9256 60.1841 72.1617 60.1841 73.5386 61.5646L95.4036 83.6525C96.784 85.0294 96.784 87.2655 95.4036 88.6424L85.4237 98.6222C84.0468 100.003 81.8107 100.003 80.4338 98.6222L58.5689 76.5343C57.1884 75.1574 57.1884 72.9213 58.5689 71.5444L61.0315 69.0818L56.7318 64.7714L26.494 97.8061C23.7366 100.564 19.268 100.564 16.5142 97.8061L14.0192 95.3112C11.2619 92.5538 11.2619 88.0852 14.0192 85.3314L48.4668 56.4812L25.5881 33.5413L18.362 33.5378L10 20.0923L16.7299 13.3517L30.4809 21.7676L30.5708 28.8426L53.7156 52.0773L60.4491 46.4403C53.8666 37.4671 54.5532 24.827 62.6636 16.7166C69.3935 9.98671 79.2655 8.31502 87.5592 11.6979L72.7333 26.3189L85.2116 38.7973L100.066 24.1475ZM22.295 88.8509C20.9181 87.474 18.6856 87.474 17.3051 88.8509C15.9246 90.2314 15.9246 92.4639 17.3051 93.8444C18.6856 95.2213 20.9181 95.2213 22.295 93.8444C23.6755 92.4603 23.6755 90.2278 22.295 88.8509Z" fill="black" fill-opacity="0.1"/>
<defs>
<linearGradient id="paint0_linear_271_6" x1="55.9082" y1="10" x2="55.9082" y2="99.8742" gradientUnits="userSpaceOnUse">
<stop stop-color="#9E00D1"/>
<stop offset="1" stop-color="#4E31FF"/>
</linearGradient>
</defs>
</svg>
