<svg width="1912" height="1954" viewBox="0 0 1912 1954" fill="none" xmlns="http://www.w3.org/2000/svg">
<g filter="url(#filter0_f_131_9)">
<path fill-rule="evenodd" clip-rule="evenodd" d="M928.223 497.722C1009.83 504.351 1091.05 499.438 1167.75 528.098C1253.68 560.209 1346.52 595.678 1396.4 672.669C1446.79 750.442 1452.09 851.62 1436.53 942.972C1422.06 1027.94 1356.71 1090.84 1312.58 1164.88C1269.11 1237.8 1243.51 1321.78 1178.33 1376.17C1107.25 1435.47 1020.69 1481.19 928.223 1485.55C834.228 1489.98 735.458 1461.78 664.113 1400.43C595.981 1341.83 586.146 1243.5 550.739 1160.91C519.591 1088.26 468.416 1022.02 468.003 942.972C467.589 863.773 517.012 796.404 548.455 723.713C583.951 641.65 588.284 532.988 665.12 487.265C741.853 441.603 839.225 490.491 928.223 497.722Z" fill="url(#paint0_linear_131_9)"/>
</g>
<defs>
<filter id="filter0_f_131_9" x="0.442902" y="0.442902" width="1911.38" height="1953.11" filterUnits="userSpaceOnUse" color-interpolation-filters="sRGB">
<feFlood flood-opacity="0" result="BackgroundImageFix"/>
<feBlend mode="normal" in="SourceGraphic" in2="BackgroundImageFix" result="shape"/>
<feGaussianBlur stdDeviation="233.779" result="effect1_foregroundBlur_131_9"/>
</filter>
<linearGradient id="paint0_linear_131_9" x1="956.133" y1="468" x2="956.133" y2="1486" gradientUnits="userSpaceOnUse">
<stop stop-color="#3D1DFF"/>
<stop offset="0.25" stop-color="#6147FF"/>
<stop offset="0.520833" stop-color="#D451FF"/>
<stop offset="0.739583" stop-color="#EC458D"/>
<stop offset="1" stop-color="#FFCA8B"/>
</linearGradient>
</defs>
</svg>
