<svg width="66" height="100" viewBox="0 0 66 100" fill="none" xmlns="http://www.w3.org/2000/svg">
<path d="M21.466 9.06485C19.5766 7.12725 19.2077 4.01648 20.8995 1.90439C22.8234 -0.497955 26.2904 -0.62747 28.3806 1.51612C30.4709 -0.627201 33.9382 -0.497686 35.8618 1.90439C37.5536 4.01675 37.1847 7.12725 35.2953 9.06485L29.923 14.5739C29.0775 15.441 27.6841 15.441 26.8386 14.5739L21.466 9.06485ZM63.2123 84.3755L52.4418 73.6051C50.8262 71.9895 49.9215 69.7924 49.9215 67.5306V57.4279C49.9215 55.1446 49.0168 52.9474 47.4013 51.3318L14.1852 18.1158C12.505 16.4356 9.79086 16.4356 8.11067 18.1158L5.56885 20.6576C3.88866 22.3378 3.88866 25.052 5.56885 26.7321L26.2266 47.3899C24.5464 49.07 21.8107 49.07 20.1305 47.3899L15.4561 42.7155C13.8621 41.1215 11.3203 41.0353 9.64007 42.4785C8.19684 44.1587 8.283 46.679 9.87703 48.273L19.7643 58.1603C18.0841 59.8405 15.3484 59.8405 13.6682 58.1603L11.1479 55.64C9.55391 54.046 7.01209 53.9598 5.3319 55.4031C3.88866 57.0833 3.97482 59.6035 5.56885 61.1976L13.302 68.9307C11.6218 70.6109 8.88615 70.6109 7.20596 68.9307L6.83976 68.5646C5.24574 66.9705 2.70391 66.8844 1.02372 68.3276C-0.419518 70.0078 -0.333354 72.5281 1.26067 74.1221L12.9358 85.7973C14.5514 87.4128 16.7486 88.3175 19.0104 88.3175H26.9589C29.2423 88.3175 31.4394 89.2223 33.055 90.8378L38.7849 96.5677C40.4005 98.1833 42.5976 99.088 44.881 99.088H57.1162C64.8063 99.088 68.6406 89.8039 63.2123 84.3755ZM46.8843 24.9658L44.3424 22.424C42.6695 20.7511 39.9476 20.7438 38.2749 22.417C36.3443 24.3481 34.7923 25.671 33.8173 27.3186C32.8496 28.9541 33.2263 31.0608 34.5702 32.4044L43.4593 41.2938C43.4593 36.3343 43.0893 34.842 46.8635 31.0611C48.5448 29.3768 48.5669 26.6484 46.8843 24.9658Z" fill="url(#paint0_linear_291_308)"/>
<path d="M21.466 9.06485C19.5766 7.12725 19.2077 4.01648 20.8995 1.90439C22.8234 -0.497955 26.2904 -0.62747 28.3806 1.51612C30.4709 -0.627201 33.9382 -0.497686 35.8618 1.90439C37.5536 4.01675 37.1847 7.12725 35.2953 9.06485L29.923 14.5739C29.0775 15.441 27.6841 15.441 26.8386 14.5739L21.466 9.06485ZM63.2123 84.3755L52.4418 73.6051C50.8262 71.9895 49.9215 69.7924 49.9215 67.5306V57.4279C49.9215 55.1446 49.0168 52.9474 47.4013 51.3318L14.1852 18.1158C12.505 16.4356 9.79086 16.4356 8.11067 18.1158L5.56885 20.6576C3.88866 22.3378 3.88866 25.052 5.56885 26.7321L26.2266 47.3899C24.5464 49.07 21.8107 49.07 20.1305 47.3899L15.4561 42.7155C13.8621 41.1215 11.3203 41.0353 9.64007 42.4785C8.19684 44.1587 8.283 46.679 9.87703 48.273L19.7643 58.1603C18.0841 59.8405 15.3484 59.8405 13.6682 58.1603L11.1479 55.64C9.55391 54.046 7.01209 53.9598 5.3319 55.4031C3.88866 57.0833 3.97482 59.6035 5.56885 61.1976L13.302 68.9307C11.6218 70.6109 8.88615 70.6109 7.20596 68.9307L6.83976 68.5646C5.24574 66.9705 2.70391 66.8844 1.02372 68.3276C-0.419518 70.0078 -0.333354 72.5281 1.26067 74.1221L12.9358 85.7973C14.5514 87.4128 16.7486 88.3175 19.0104 88.3175H26.9589C29.2423 88.3175 31.4394 89.2223 33.055 90.8378L38.7849 96.5677C40.4005 98.1833 42.5976 99.088 44.881 99.088H57.1162C64.8063 99.088 68.6406 89.8039 63.2123 84.3755ZM46.8843 24.9658L44.3424 22.424C42.6695 20.7511 39.9476 20.7438 38.2749 22.417C36.3443 24.3481 34.7923 25.671 33.8173 27.3186C32.8496 28.9541 33.2263 31.0608 34.5702 32.4044L43.4593 41.2938C43.4593 36.3343 43.0893 34.842 46.8635 31.0611C48.5448 29.3768 48.5669 26.6484 46.8843 24.9658Z" fill="black" fill-opacity="0.1"/>
<defs>
<linearGradient id="paint0_linear_291_308" x1="32.8777" y1="0" x2="32.8777" y2="99.088" gradientUnits="userSpaceOnUse">
<stop stop-color="#9E00D1"/>
<stop offset="1" stop-color="#4E31FF"/>
</linearGradient>
</defs>
</svg>
