<svg width="3630" height="1328" viewBox="0 0 3630 1328" fill="none" xmlns="http://www.w3.org/2000/svg">
<path d="M3064.35 1311.94C3057.96 1308.51 3053.21 1303.48 3050.33 1296.86C3045.28 1285.29 3039.73 1273.88 3035.63 1261.97C3031.22 1249.16 3023.22 1240.48 3011.35 1234.32C2992.04 1224.31 2986.75 1203.88 2998.21 1185.44C2999.57 1183.24 3001.43 1181.25 3003.39 1179.54C3033.32 1153.5 3059.07 1124.11 3076.97 1088.36C3096.19 1049.96 3115.52 1011.62 3134.73 973.227C3153.37 935.97 3176.79 902.147 3206.99 873.309C3211.74 868.774 3212.57 864.035 3211.85 858.121C3205.69 807.556 3199.56 756.988 3193.56 706.405C3192.15 694.497 3191.69 682.466 3189.99 670.605C3188.49 660.111 3185.71 649.808 3183.8 639.363C3178.87 612.306 3180.81 585.743 3189.4 559.562C3194.49 544.089 3199.51 528.545 3203.4 512.749C3207.39 496.589 3205.44 480.285 3201.07 464.352C3194.58 440.618 3187.87 416.941 3181.28 393.231C3180.66 390.997 3180.28 388.696 3179.6 385.515C3178.43 387.511 3177.22 388.766 3176.93 390.206C3172.88 410.081 3164.27 427.99 3153.57 445.019C3152.51 446.712 3151.47 448.423 3150.35 450.074C3140.29 464.881 3133.63 480.602 3131.81 498.918C3129.22 525.068 3123.29 550.767 3115.52 575.915C3112.08 587.045 3111.54 597.913 3113.87 609.309C3118.05 629.829 3121.74 650.453 3125.4 671.075C3126.21 675.626 3126.42 680.364 3126.21 684.985C3126.08 687.848 3125.21 691.014 3123.67 693.402C3121.04 697.491 3116.35 696.933 3114.42 692.42C3113.13 689.395 3112.64 686.03 3111.78 682.822C3110.14 676.771 3108.5 670.724 3106.62 663.825C3100.82 667.241 3099.9 672.369 3099 676.785C3096.06 691.147 3094.06 705.58 3098.83 720.112C3100.34 724.697 3100.46 729.736 3101.53 736.577C3096.74 734.429 3093.62 733.459 3090.98 731.761C3085.05 727.956 3077.22 727.059 3073.65 719.558C3070.37 712.678 3066.21 706.225 3062.6 699.496C3060.56 695.689 3059.43 691.268 3056.87 687.893C3051.78 681.17 3051.26 673.811 3052.62 666.112C3055.35 650.707 3057.49 635.123 3061.47 620.034C3067.89 595.733 3067.75 571.379 3065.29 546.717C3062.33 516.988 3063.69 487.447 3071.89 458.6C3078.61 434.923 3086.59 411.605 3093.37 387.943C3099.89 365.208 3106.81 342.739 3117.07 321.285C3122.19 310.577 3124.94 298.742 3128.84 287.441C3135.13 269.184 3145.33 253.172 3158.59 239.381C3163.49 234.288 3170.44 230.967 3176.85 227.572C3190.53 220.321 3204.96 215.478 3220.73 215.568C3224.71 215.59 3228.7 215.025 3232.67 214.563C3246.02 213.011 3253.68 204.512 3253.79 190.766C3253.88 179.653 3251.72 169.829 3244.41 160.194C3229.71 140.838 3217.26 119.918 3211.5 95.7089C3207.12 77.2967 3207.92 59.3501 3214.99 41.8314C3224.28 18.7957 3242 6.17832 3265.97 1.78537C3284.34 -1.57922 3302.57 0.050632 3320.46 4.67484C3335.39 8.53254 3347.67 17.0992 3357.57 28.825C3363.06 35.3273 3367.4 42.3584 3363.31 51.6065C3362.5 53.4444 3363.38 56.1417 3363.78 58.3886C3365.08 65.6034 3366.66 72.7689 3367.83 80.0031C3368.35 83.2493 3369.39 87.3133 3368.01 89.7888C3364.38 96.3172 3367.55 101.235 3370.19 106.557C3372.86 111.921 3375.54 117.277 3378.07 122.703C3382.29 131.723 3382.08 132.147 3373.99 136.092C3371.7 140.823 3369.92 144.522 3367.79 148.921C3367.92 149.104 3368.83 150.385 3370 152.05C3365.26 157.367 3360.46 162.591 3363.7 171.031C3365.29 175.177 3361.22 179.114 3355.05 179.593C3348.12 180.131 3341.11 179.717 3333.01 179.717C3330.94 192.734 3332.05 205.379 3336.86 217.632C3337.52 219.322 3340.22 220.595 3342.24 221.278C3345.05 222.228 3348.13 222.351 3351.06 222.977C3371.07 227.251 3382.29 239.966 3384.34 260.064C3384.8 264.573 3386.23 269.042 3387.65 273.383C3392.63 288.53 3398.02 303.546 3402.84 318.742C3406.32 329.702 3405.17 340.583 3399.72 350.689C3396.55 356.573 3395.91 362.539 3396.48 369.002C3398.64 393.602 3398.89 418.241 3397.14 442.871C3396.59 450.699 3399.42 457.152 3403.66 463.3C3413.88 478.103 3424.6 492.595 3434.18 507.798C3444.11 523.542 3453.5 539.693 3462.05 556.216C3467.07 565.902 3473.12 574.237 3481.52 581.047C3495.75 592.589 3510.08 604.035 3524.04 615.904C3531.63 622.362 3538.76 629.412 3545.72 636.57C3549.9 640.875 3549.71 641.6 3549.81 648.325C3536.49 646.968 3528.06 634.799 3514.41 632.25C3516.66 649.354 3528.8 660.212 3537.49 674.146C3531.23 676.409 3525.6 678.767 3519.78 680.49C3503.05 685.44 3491.63 674.735 3481.22 665.129C3470.53 655.272 3462.03 643.017 3452.86 631.577C3450.64 628.811 3449.68 625.067 3447.96 621.868C3443.1 612.81 3439.55 602.58 3432.97 595.006C3414.04 573.256 3393.88 552.588 3372.67 529.852C3372.41 533.31 3372.23 534.449 3372.26 535.584C3372.85 557.9 3373.6 580.214 3373.98 602.534C3374.07 608.098 3375.61 612.658 3378.59 617.364C3418.26 680.045 3450.28 746.449 3475.29 816.287C3482.21 835.598 3484.7 855.733 3488.21 875.712C3488.73 878.653 3489.27 881.62 3490.16 884.46C3496.34 904.059 3497.06 924.399 3498.1 944.638C3500.3 987.557 3501.52 1030.53 3504.31 1073.41C3505.44 1090.95 3509.12 1108.38 3512.48 1125.7C3516.73 1147.56 3521.63 1169.29 3526.63 1190.99C3529.33 1202.73 3534.13 1213.7 3540.86 1223.8C3549.54 1236.81 3557.56 1250.31 3566.86 1262.86C3572.96 1271.09 3580.37 1278.5 3587.98 1285.4C3596.52 1293.15 3606.69 1297.84 3618.66 1298.32C3628.47 1298.72 3630.85 1302.42 3628.91 1312.37C3627.06 1321.92 3627.03 1321.75 3617.74 1323.09C3613.59 1323.69 3609.56 1325.16 3606 1326.99C3599.79 1327.74 3593.07 1327.74 3585.54 1326.98C3583.97 1325.64 3583.29 1324.79 3582.43 1324.52C3568.45 1320.26 3554.45 1316.06 3539.76 1311.66C3535.16 1309.6 3531.17 1307.89 3527.36 1305.85C3518.37 1301.04 3509.03 1300.3 3499.28 1302.97C3496.39 1303.76 3493.46 1304.39 3490.55 1305.1C3484.41 1306.59 3478.71 1305.54 3473.27 1302.35C3464.6 1297.26 3459.35 1289.53 3458.53 1279.83C3457.76 1270.63 3457.49 1261.02 3459.3 1252.05C3463.33 1232.04 3462.6 1212.27 3458.93 1192.51C3456.56 1179.77 3452.66 1167.31 3450.28 1154.57C3444.31 1122.47 3436.08 1090.97 3426.72 1059.71C3417.84 1030.06 3410.03 1000.18 3405.81 969.389C3401.82 940.277 3400.02 911.079 3399.92 881.745C3399.9 877.241 3399 873.414 3396.35 869.657C3374.05 838.099 3351.91 806.432 3329.68 774.829C3328.67 773.402 3327.24 772.275 3325.17 770.144C3324.16 781.501 3323.43 791.398 3322.38 801.259C3320.43 819.451 3318.67 837.675 3316.09 855.78C3314.55 866.568 3313.05 877.738 3309 887.713C3300.48 908.738 3289.02 928.417 3274.91 946.241C3245.53 983.329 3215.93 1020.24 3185.98 1056.88C3171.66 1074.4 3156.13 1090.94 3141.55 1108.26C3132.36 1119.19 3122.42 1129.9 3115.5 1142.22C3106.11 1158.9 3098.94 1176.86 3093.73 1195.5C3088.03 1215.88 3089.34 1236.42 3091.67 1256.93C3093.83 1275.87 3102.41 1291.72 3117.1 1304.1C3118.36 1305.17 3119.59 1306.35 3120.56 1307.67C3122.99 1311.01 3123.42 1314.37 3119.51 1317.43C3118.11 1318.08 3117.29 1318.77 3116.41 1319.53C3116.35 1319.59 3116.18 1319.57 3115.36 1319.38C3096.9 1323.07 3080.22 1320.27 3064.35 1311.94Z" fill="white"/>
<path d="M2604.46 1311.83C2597.61 1304.06 2596.47 1295.37 2597.22 1284.99C2598.99 1260.51 2608.23 1238.51 2617.36 1216.4C2621.73 1205.8 2624.72 1195.11 2624.78 1183.54C2624.82 1175.23 2625.28 1166.85 2626.4 1158.62C2629.08 1138.76 2626.05 1119.51 2621.77 1100.22C2616.67 1077.17 2610.95 1054.18 2609.84 1030.47C2609.4 1021.22 2609.96 1011.91 2610.1 1002.63C2610.13 1000.48 2610.28 998.327 2610.48 993.975C2601.77 1004.05 2594.1 1012.24 2587.21 1021.03C2561.32 1054.07 2535.66 1087.27 2510.03 1120.5C2506.58 1124.96 2503.68 1129.86 2500.69 1134.67C2493.99 1145.46 2490.52 1156.94 2492.65 1169.85C2495.45 1186.88 2496.89 1204.2 2500.72 1220.98C2505.42 1241.54 2520.18 1255.38 2536.53 1267.38C2539.31 1269.42 2543.31 1269.83 2546.79 1270.88C2553.78 1272.99 2558.46 1277.27 2559.42 1284.74C2560.35 1292 2556.56 1295.9 2549.18 1296.02C2545.91 1296.07 2542.66 1296.77 2539.39 1296.91C2530.12 1297.32 2520.79 1298.39 2511.59 1297.71C2499.51 1296.82 2488.82 1291.41 2481.6 1281.61C2466.36 1260.9 2446.28 1246.72 2423.67 1235.29C2416.31 1231.58 2409.4 1226.61 2403.12 1221.24C2398.41 1217.22 2394.48 1211.98 2391.23 1206.67C2387.43 1200.43 2386.63 1193.28 2390.43 1186.64C2394.04 1180.34 2397.58 1173.74 2402.46 1168.48C2427.58 1141.39 2447.61 1110.73 2464.82 1078.33C2471.75 1065.27 2475.46 1050.46 2480.27 1036.32C2482.62 1029.4 2484.3 1022.23 2486 1015.11C2493.83 982.182 2510.7 954.379 2533.36 929.587C2546.38 915.332 2558.55 900.29 2571.13 885.631C2578.45 877.11 2582.13 868.122 2578.93 856.34C2576.15 846.138 2575.43 835.367 2573.95 824.826C2572.89 817.245 2569.5 811.015 2563.31 805.381C2509.61 846.117 2455.89 886.867 2401.61 928.036C2399.13 923.707 2397.35 920.604 2395.67 917.664C2448.88 876.004 2501.52 834.79 2554.15 793.588C2538.55 773.024 2523.71 753.468 2508.45 733.362C2508.45 736.401 2508.45 738.856 2508.45 743.237C2499.37 728.856 2489.42 717.062 2488.12 699.975C2480.69 705.125 2484.72 712.201 2481.89 717.448C2475.15 715.391 2472.63 709.876 2471.07 704.149C2469.69 699.062 2468.72 693.628 2468.92 688.4C2469.39 676.164 2469.68 663.974 2468.49 651.767C2467.02 636.739 2470.47 622.431 2477.04 609.228C2482.1 599.06 2484.18 589.378 2479.21 578.256C2478.35 579.651 2477.15 580.941 2476.68 582.458C2466.41 615.833 2456.18 649.221 2446.1 682.656C2445.39 685.011 2445.35 687.914 2446.03 690.264C2447.13 694.058 2448.85 697.731 2450.73 701.23C2456.49 711.961 2456.67 722.304 2448.64 731.932C2446.2 734.86 2445.72 737.759 2446.57 741.167C2448.85 750.269 2444.18 758.122 2441.47 766.101C2439.37 772.27 2432.65 772.642 2426.95 772.751C2421.31 772.858 2415.64 772.448 2410.03 771.87C2407.47 771.608 2404.91 770.628 2402.54 769.568C2396.54 766.893 2390.85 763.369 2384.67 761.328C2376.56 758.656 2372.42 753.566 2372.37 745.265C2372.34 740.295 2372.78 735.297 2373.37 730.357C2374.17 723.78 2374.67 717.056 2376.51 710.748C2378.34 704.473 2381.07 698.272 2384.47 692.687C2389.65 684.171 2396.11 676.433 2401.3 667.923C2403.8 663.83 2405.54 658.829 2406.08 654.065C2407.91 637.86 2409.12 621.582 2410.43 605.322C2412.77 576.467 2414.34 547.531 2417.51 518.771C2419.58 500.027 2424.27 481.736 2434.86 465.433C2439.36 458.518 2442.37 450.653 2446.33 443.371C2448.87 438.703 2451.31 433.732 2454.9 429.946C2459.17 425.432 2454.91 420.31 2457.44 415.638C2462.02 407.188 2465.24 398.006 2469.75 389.511C2474.73 380.11 2480.53 371.14 2485.97 361.976C2494.51 347.581 2501.07 332.461 2504.58 315.953C2506.15 308.543 2509.01 301.309 2512.05 294.328C2517.84 281.037 2527.15 270.93 2540.65 264.979C2543.99 263.507 2547.36 261.905 2550.29 259.775C2552.58 258.111 2555.13 255.849 2555.99 253.319C2562.8 233.273 2573.96 215.495 2584.55 197.417C2589.6 188.8 2593.88 179.889 2596.53 170.281C2595.85 169.713 2595.18 169.144 2594.51 168.576C2593.33 170.486 2592.14 172.396 2590.18 174.664C2589.1 174.484 2588.73 174.008 2588.27 173.595C2589.94 169.378 2591.61 165.161 2593.89 159.389C2591.14 160.676 2590.14 161.144 2588.99 161.678C2588.93 160.671 2588.72 159.705 2588.82 158.772C2589.31 154.168 2590.01 149.584 2590.38 144.973C2590.63 141.954 2592.09 138.522 2587.75 136.62C2586.9 136.247 2586.72 133.589 2586.78 132.005C2587.14 122.413 2587.64 112.826 2588.13 103.239C2588.21 101.587 2588.87 99.8639 2588.57 98.3095C2586.71 88.8188 2591.48 82.4075 2598.21 76.8329C2605.03 71.1834 2611.86 65.536 2619.8 58.9616C2619.29 58.8371 2617.65 58.4367 2615.69 57.9575C2617.37 56.6962 2617.76 56.1916 2618.25 56.0702C2623.07 54.8686 2627.58 53.9107 2630.29 48.5221C2631.41 46.2845 2635.9 45.2794 2639.05 44.6148C2645.66 43.2202 2652.4 42.4224 2660 41.2371C2661.62 38.7734 2664.08 35.0245 2666.38 31.5156C2669.56 33.4417 2672.09 34.9684 2675.28 36.9015C2677.15 35.6479 2679.97 33.7615 2684.67 30.6074C2682.53 34.5064 2681.52 36.3372 2680.42 38.3361C2681.37 38.4303 2682 38.6933 2682.44 38.5059C2689.95 35.2819 2694.18 35.595 2703.6 39.2573C2705.96 40.1716 2708.84 39.7007 2711.47 39.9089C2718.08 40.4305 2724.74 40.5512 2731.26 41.6096C2741.77 43.3178 2748.72 49.2116 2750.31 61.5251C2749.65 63.7685 2749.15 64.6999 2748.29 65.0678C2744.2 61.4185 2740.45 58.3326 2736.21 54.7087C2728.23 51.5428 2720.82 48.4428 2711.77 50.4084C2719.95 52.9931 2727.27 55.3068 2735.19 57.9293C2740.05 62.7088 2744.32 67.1796 2748.62 72.4081C2749.26 76.6513 2749.85 80.1368 2750.44 83.6224C2746.26 91.6114 2747.99 98.1171 2753.73 105.133C2761.18 114.236 2760.46 119.446 2753.3 128.141C2754.7 131.016 2756.77 133.802 2757.4 136.883C2758.69 143.26 2761.29 147.803 2767.04 151.795C2774.27 156.81 2772.28 167.428 2764.37 171.516C2762.95 172.25 2761.32 172.576 2759.92 173.047C2760.89 180.806 2761.53 188.219 2762.82 195.517C2763.78 200.934 2760.66 203.384 2756.25 205.32C2762.46 213.055 2759 221.44 2759.06 229.224C2759.1 234.163 2751.82 237.1 2743.9 237.011C2731.52 236.872 2719.13 236.937 2707.11 233.228C2705.94 232.867 2704.56 233.18 2702.69 233.18C2700.05 243.018 2695.65 252.553 2695.46 262.169C2695.28 271.36 2698.54 281.012 2702.02 289.775C2706.04 299.927 2712.21 309.207 2716.99 319.086C2725.09 335.835 2728.83 353.706 2728.57 372.242C2728.37 386.882 2727.7 401.546 2726.45 416.132C2725.5 427.117 2721.07 436.44 2710.88 442.525C2706.32 445.256 2702.93 449.989 2702.7 455.62C2702.21 467.899 2701.99 480.205 2702.28 492.485C2702.35 495.024 2704.86 497.705 2706.68 499.971C2721.3 518.153 2736.34 536.004 2750.57 554.474C2758.37 564.59 2768 569.096 2780.5 569.627C2786.66 569.889 2792.99 571.477 2798.76 573.716C2805.01 576.141 2809.35 581.305 2812.17 588.501C2858.77 552.131 2904.85 516.158 2951.39 479.833C2949.43 476.853 2947.9 474.517 2946.29 472.065C2946.86 471.195 2947.2 470.128 2947.93 469.62C2974.74 451.02 3001.41 432.213 3028.5 414.041C3039.55 406.629 3051.55 400.625 3065.15 399.014C3066.72 398.827 3068.34 398.989 3070.72 398.989C3067.47 408.634 3063.01 416.942 3057.11 424.474C3036.31 451.007 3015.1 477.133 2987.08 496.677C2984.12 498.74 2981.69 501.567 2978.64 504.39C2975.62 502.478 2972.65 500.596 2969.32 498.484C2966.31 500.68 2963.34 502.783 2960.43 504.979C2934.39 524.684 2908.49 544.58 2882.28 564.055C2866.34 575.905 2849.9 587.092 2833.71 598.63C2831.03 600.546 2828.53 602.734 2826.05 604.719C2830.51 617.226 2829.24 626.326 2821.39 636.289C2819.81 638.283 2817.45 639.993 2815.09 640.969C2802.34 646.241 2788.95 649.184 2775.35 651.202C2774.04 651.396 2772.41 651.865 2771.42 651.314C2765.11 647.786 2761.02 651.587 2756.49 655.144C2733.18 673.481 2709.95 691.93 2686.25 709.745C2680.02 714.423 2678.84 719.279 2680.71 726.004C2690.16 759.96 2699.52 793.945 2709.08 827.87C2710.89 834.265 2712.79 840.801 2715.85 846.64C2726.47 866.863 2726.15 888.428 2724.01 910.082C2721.49 935.579 2717.68 960.948 2715.19 986.447C2711.61 1023.01 2704.17 1058.84 2695.59 1094.45C2687.59 1127.63 2684.55 1161.39 2682.08 1195.3C2680.16 1221.66 2688.41 1242.23 2711.87 1255.93C2721.35 1261.46 2730.36 1267.8 2739.54 1273.83C2751.7 1281.82 2764.76 1287.04 2779.45 1288.15C2784.35 1288.53 2789.26 1290.1 2793.94 1291.74C2803.17 1294.98 2804.67 1297.68 2803.61 1307.26C2803.36 1309.57 2803.02 1311.87 2801.89 1315.19C2791.43 1320.29 2782.07 1325.14 2770.95 1323.69C2767.1 1323.19 2763.03 1323.9 2759.14 1324.52C2758.12 1324.69 2757.38 1326.62 2756.51 1327.74C2746.47 1327.74 2736.42 1327.74 2725.55 1326.99C2717.65 1323.56 2710.59 1320.82 2703.49 1318.21C2699.18 1316.62 2694.79 1315.23 2689.96 1313.15C2680.41 1309.85 2671.37 1307.99 2661.89 1313.72C2654.3 1316.05 2647.58 1318.82 2640.63 1320.67C2627.1 1324.27 2614.58 1322.7 2604.46 1311.83ZM2725.7 655.913C2734.06 649.303 2742.45 642.739 2750.76 636.07C2757.83 630.396 2758.14 628.094 2751.61 621.899C2744.35 615.011 2739.44 606.73 2737.36 597.199C2735.82 590.14 2731.9 586.543 2725.73 583.69C2712.92 577.765 2699.63 572.729 2688.05 564.359C2686.04 562.91 2683.61 562.043 2680.66 560.537C2678.21 568.59 2677.43 576.784 2673.47 582.938C2667.01 592.988 2668.12 602.399 2672.03 612.286C2674.97 619.697 2678.1 627.084 2681.83 634.116C2688.79 647.239 2685.56 660.951 2683.28 674.006C2682.3 679.659 2682.78 683.34 2684.89 688.424C2698.58 677.533 2711.59 667.176 2725.7 655.913Z" fill="white"/>
<path d="M1912.51 443.74C1910.87 446.171 1909.22 448.602 1906.4 452.773C1908.1 442.824 1912.45 436.318 1916.42 429.711C1925.46 414.648 1934.69 399.699 1943.83 384.69C1944.69 383.278 1945.11 381.493 1946.22 380.356C1955.01 371.349 1958.82 359.277 1965.63 349.054C1975.27 334.583 1980.24 318.619 1979.81 301.186C1979.67 295.454 1980.05 289.285 1973.85 285.601C1972.81 284.985 1972.2 282.904 1972.16 281.482C1972.07 277.502 1972.39 273.513 1973.12 268.044C1975.32 259.428 1976.92 252.294 1978.15 246.849C1976.38 244.388 1975.5 243.161 1974.62 241.933C1977.35 236.885 1980.08 231.838 1982.81 226.79C1982.38 226.499 1981.94 226.207 1981.5 225.916C1980.27 226.798 1979.03 227.68 1977.79 228.562C1977.45 228.321 1977.11 228.08 1976.76 227.839C1981.44 221.737 1986.12 215.634 1990.95 208.739C1991.11 207.947 1990.85 207.921 1991.53 207.886C1994.01 205.836 1995.83 203.822 1998.22 201.794C1999.71 200.349 2000.63 198.917 2001.88 196.96C1997.98 197.197 1995.13 197.371 1992.27 197.545C2000.52 182.498 2014.91 174.662 2029.01 166.655C2043.43 158.467 2059.16 154.966 2075.73 155.013C2089.43 155.052 2101.63 159.938 2113.13 166.655C2116.37 168.545 2119.09 170.264 2123.01 170.153C2131.67 169.907 2137.47 174.074 2140.15 183.654C2139.68 185.817 2139.17 186.749 2138.23 187.15C2136.09 185.616 2134.18 185.535 2135.08 188.021C2136.34 191.511 2138.54 194.66 2140.22 197.909C2140.1 197.862 2140.09 198.118 2140.09 198.118C2143.48 204.446 2146.35 211.14 2150.42 216.99C2153.88 221.949 2154.87 226.175 2151.95 231.628C2148.47 238.151 2150.35 243.553 2156.07 248.218C2159.66 251.139 2162.76 254.735 2165.68 258.353C2169.31 262.857 2171.45 267.668 2170.04 274.032C2169.26 277.56 2170.43 281.897 2171.83 285.434C2173.53 289.762 2172.13 293.272 2171.67 297.432C2170.53 307.601 2159.91 313.111 2160.37 323.582C2160.42 324.598 2158.55 325.989 2157.29 326.723C2152.46 329.528 2148.67 333.243 2146.52 338.681C2142.05 336.227 2138.03 336.173 2134.17 339.021C2133.11 339.804 2132.03 341.105 2130.9 341.163C2122.19 341.615 2113.43 342.386 2104.75 341.907C2098.82 341.58 2096.96 341.52 2094.76 347.094C2093.55 350.147 2093.21 353.532 2092.36 356.734C2090.99 361.854 2089.55 366.954 2088.08 372.047C2087.26 374.897 2086.15 377.674 2085.47 380.555C2082.64 392.631 2085.33 404.154 2092.28 413.705C2101.95 426.975 2103.25 441.999 2104.32 457.233C2105.75 477.732 2106.62 498.271 2107.79 519.906C2117.65 517.423 2127.05 513.919 2136.71 512.869C2154.18 510.97 2164.97 499.786 2173.77 486.901C2183.29 472.967 2196.06 464.208 2210.98 457.912C2225.68 451.705 2240.41 453.125 2254.44 460.149C2258.4 462.138 2261.95 465.699 2264.64 469.314C2267.49 473.134 2268.28 477.604 2264.33 481.995C2261.99 484.593 2260.7 488.134 2258.54 491.955C2250.07 491.336 2247.96 482.389 2241.95 477.869C2229.96 479.74 2226.51 490.735 2218.78 498.949C2222.78 500.331 2225.47 501.262 2227.94 502.113C2231 499.247 2233.57 496.848 2236.72 493.899C2240.47 499.336 2239.61 503.922 2236.75 508.26C2231.02 516.963 2223.55 523.271 2212.65 524.132C2206.69 524.602 2200.71 524.76 2194.31 525.081C2190.39 531.184 2186.62 537.809 2182.12 543.906C2175.15 553.37 2165.28 560.235 2159.7 571.04C2159 570.524 2158.31 570.008 2157.61 569.493C2159.42 564.745 2161.23 559.996 2163.04 555.248C2156.61 558.051 2152.79 562.326 2150.11 568.218C2146.69 575.763 2142.36 582.953 2137.86 589.928C2136.25 592.412 2132.61 593.492 2130.57 595.807C2128.22 598.478 2126.62 601.807 2123.55 604.384C2123.87 602.129 2124.19 599.874 2124.86 595.171C2117.07 604.034 2106.94 606.307 2101.13 614.743C2101.49 613.35 2101.86 611.957 2102.51 609.471C2098.62 611.798 2095.42 613.813 2092.13 615.651C2088.4 617.731 2083.9 618.973 2081.02 621.863C2078.78 624.106 2077.97 628.243 2077.5 631.672C2076.34 640.223 2076.49 649.014 2074.68 657.4C2072.95 665.429 2069.61 673.146 2066.61 680.858C2063.98 687.629 2060.84 694.204 2057.93 700.858C2059.57 703.511 2060.6 706.108 2062.41 707.946C2070.73 716.412 2074.86 727.417 2080.8 737.331C2082.72 740.537 2085.66 743.134 2088.39 746.309C2110.26 727.236 2130.47 708.297 2152.06 691.094C2182.64 666.733 2208.4 638.519 2228.14 604.75C2237.88 588.085 2247.87 571.556 2258.11 555.199C2266.59 541.668 2275.55 528.44 2284.44 515.173C2286.24 512.483 2288.68 510.216 2292.08 508.308C2291.79 509.929 2291.88 511.736 2291.17 513.139C2285.75 523.827 2280.67 534.723 2274.57 545.011C2259.57 570.293 2248.29 597.316 2236.53 624.126C2234.43 628.915 2232.28 633.682 2229.32 640.344C2239.36 635.557 2247.05 629.432 2258.35 629.156C2245.34 644.771 2229.75 656.552 2217.9 673.329C2231.55 675.441 2244.14 675.706 2256.32 672.494C2276.88 667.07 2297.22 660.755 2317.59 654.614C2329.33 651.072 2340.97 647.137 2353.37 644.667C2351.6 646.055 2350.01 647.788 2348.05 648.774C2338.54 653.537 2329.19 658.781 2319.29 662.587C2300.97 669.634 2282.47 676.316 2263.72 682.109C2254.63 684.919 2244.83 686.463 2235.31 686.66C2217.3 687.031 2200.88 693.758 2183.8 697.806C2181.98 698.238 2180.35 699.754 2178.79 700.974C2152.82 721.314 2126.88 741.688 2100.93 762.052C2099.89 762.868 2098.82 763.656 2097.44 764.708C2098.37 768.299 2099.5 771.412 2099.94 774.62C2101.51 786.088 2103.28 797.561 2103.97 809.093C2104.18 812.466 2101.99 817.304 2099.29 819.3C2087.92 827.71 2075.01 831.092 2060.7 829.12C2054.03 828.2 2050.71 823.281 2046.83 819.097C2041.27 819.758 2042.09 822.773 2043.41 826.241C2048.15 838.678 2053.07 851.053 2057.4 863.632C2066.44 889.882 2068.29 916.939 2065.62 944.418C2065.36 947.067 2064.72 949.727 2064.84 952.356C2065.29 962.465 2062.87 971.505 2059.18 981.17C2052.82 997.837 2048.1 1015.34 2046.67 1033.46C2044.32 1063.39 2039.63 1092.82 2029.97 1121.46C2024.67 1137.18 2020.32 1153.41 2017.65 1169.76C2015.52 1182.76 2016.8 1196.29 2016.17 1209.57C2015.7 1219.43 2016.63 1228.82 2022.43 1237.15C2025.23 1241.17 2028.03 1245.22 2031.2 1248.95C2033.33 1251.47 2036.29 1253.28 2038.54 1255.71C2050.84 1268.94 2066.71 1275.43 2083.72 1279.69C2092.29 1281.83 2099.97 1285.49 2106.46 1291.57C2113.72 1298.4 2114.1 1302.75 2106.68 1311.73C2103.52 1312.89 2101.55 1313.39 2099.93 1314.44C2091.79 1319.72 2083.53 1323.64 2073.21 1322.21C2070.47 1321.83 2065.08 1322.28 2064.51 1327.74C2057.79 1327.74 2051.07 1327.74 2043.38 1326.99C2034.87 1322.97 2027.35 1319.63 2019.76 1316.46C2018.35 1315.88 2016.67 1315.97 2014.94 1314.95C2010.59 1309.44 2004.9 1309.47 1999.42 1309.73C1986.52 1310.34 1973.64 1311.32 1959.85 1311.99C1952.79 1311.8 1946.64 1311.79 1940.5 1311.77C1923.84 1305.86 1922.78 1294.02 1925.92 1277.45C1927.33 1270.06 1930.93 1263.06 1933.79 1255.98C1935.28 1252.29 1937.01 1248.62 1939.13 1245.27C1949.51 1228.86 1954.64 1210.95 1956.18 1191.65C1958.64 1160.71 1959.17 1129.77 1958.07 1098.77C1958.01 1097.2 1957.61 1095.64 1957.13 1092.44C1954.15 1096.29 1952.11 1098.93 1949.37 1102.47C1949.37 1099.55 1949.37 1097.83 1949.37 1095.12C1939.96 1102.49 1930.94 1108.97 1924.7 1118.47C1918.63 1118.71 1918.67 1128.29 1911.6 1127.06C1911.39 1127.02 1910.93 1127.36 1910.88 1127.59C1909.17 1135.44 1901.58 1137.93 1896.85 1143.02C1893.1 1147.07 1889.96 1151.28 1884.55 1154.09C1880.68 1156.1 1878.16 1162.38 1876.83 1167.24C1873.7 1178.65 1872.18 1190.4 1865.42 1200.75C1863.46 1203.76 1864.1 1209.39 1865.27 1213.3C1866.97 1218.95 1870.03 1224.24 1872.9 1229.47C1876.27 1235.59 1880.28 1241.35 1883.62 1247.49C1887.15 1253.99 1890.92 1259.65 1898.16 1263.06C1904.83 1266.21 1908.95 1272.49 1912.75 1279.01C1915.93 1284.48 1913.91 1289.29 1911.3 1292.68C1908.43 1296.41 1902.82 1298.82 1897.78 1296.36C1891.99 1293.53 1886.33 1294.09 1880.31 1294.36C1872.49 1294.72 1865.11 1292.21 1858.62 1287.87C1846.29 1279.64 1834.12 1271.32 1827.51 1257.09C1824.3 1250.18 1819.4 1244.07 1816.01 1237.23C1810.78 1226.67 1802.72 1219.18 1792.81 1213.26C1783.9 1207.95 1775.54 1202.06 1769.76 1193.01C1767.02 1188.71 1766.17 1184.65 1767.52 1179.81C1770.32 1169.72 1775.06 1161.37 1785.64 1157.56C1787.73 1156.81 1789.55 1155.15 1791.33 1153.7C1803.46 1143.82 1815.6 1133.94 1827.64 1123.94C1837.62 1115.65 1847.87 1107.61 1857.18 1098.62C1861.49 1094.46 1863.58 1088.1 1867.15 1083.08C1876.03 1070.57 1877.75 1055.26 1883.74 1041.64C1885.21 1038.29 1886.77 1034.89 1888.9 1031.96C1897.1 1020.7 1904.94 1009.1 1914.08 998.635C1921.47 990.169 1930.56 983.191 1938.82 975.482C1945.59 969.169 1952.26 962.751 1958.32 957C1957.41 950.943 1956.73 946.397 1955.94 941.088C1955.08 942.522 1954.52 943.47 1953.62 944.988C1946.82 936.961 1952.98 926.042 1946.48 917.473C1945.59 919.351 1944.86 920.882 1943.22 924.323C1940.25 914.689 1937.72 906.5 1935.06 897.858C1935.51 898.051 1935.12 897.841 1935.1 897.881C1934.72 898.425 1934.21 899.531 1934.1 899.491C1932.99 899.081 1931.56 898.758 1930.94 897.895C1928.43 894.402 1926.16 890.726 1923.25 886.276C1859.03 932.276 1794.98 978.158 1730.21 1024.55C1726.65 1018.79 1723.73 1014.07 1720.55 1008.92C1722.25 1007.35 1723.96 1005.83 1725.6 1004.25C1727.79 1002.16 1724.81 998.307 1728.78 996.373C1732.29 994.667 1735.08 991.507 1738.2 989.012C1741.33 986.517 1744.47 984.042 1747.62 981.574C1750.76 979.107 1753.92 976.651 1757.08 974.207C1760.25 971.764 1763.38 969.271 1766.61 966.924C1810.83 934.843 1855.07 902.786 1899.29 870.712C1900.34 869.951 1901.3 869.063 1902.52 868.052C1896.87 851.389 1891.27 834.878 1885.45 817.728C1884.8 820.172 1884.24 822.263 1883.44 825.27C1873.98 815.134 1870.11 803.422 1870.26 790.464C1870.35 782.597 1868.06 775.655 1864.94 767.766C1863.41 769.488 1862.45 770.578 1861.47 771.671C1861.28 771.043 1860.93 770.415 1860.92 769.782C1860.3 730.62 1866.84 693.042 1885.28 657.996C1887.55 653.673 1888.48 648.655 1890.16 644.006C1893.52 634.738 1896.13 625.074 1900.63 616.388C1904.19 609.505 1907.3 602.565 1908.24 595.104C1908.86 590.171 1907.69 584.673 1906.04 579.87C1903.19 571.56 1904.29 563.533 1905.77 555.321C1906.14 553.265 1905.83 551.085 1905.83 547.332C1903.84 549.671 1902.86 550.831 1901.85 552.019C1901.58 551.85 1900.7 551.541 1900.7 551.25C1900.98 538.083 1902.7 524.779 1901.38 511.782C1899.1 489.28 1906.92 469.317 1914.7 447.795C1918.01 440.678 1920.63 434.741 1923.25 428.804C1922.79 428.569 1922.32 428.334 1921.86 428.099C1918.74 433.313 1915.63 438.527 1912.51 443.74ZM2026.42 761.302C2022.41 765.564 2021.26 770.099 2024.02 775.696C2025.6 778.905 2025.94 782.706 2027.15 786.131C2028.04 788.647 2029.43 790.985 2030.59 793.402C2031.06 793.198 2031.54 792.993 2032.01 792.789C2032.39 789.135 2032.77 785.481 2033.24 781.036C2035.41 783.099 2036.61 784.243 2037.81 785.387C2038.3 785.046 2038.79 784.705 2039.28 784.365C2035.33 776.317 2031.37 768.269 2026.42 761.302ZM1979.34 337.278C1979.65 335.455 1979.96 333.632 1980.28 331.809C1979.85 331.661 1979.43 331.512 1979.01 331.363C1977.99 333.673 1976.97 335.983 1975.96 338.292C1976.9 338.325 1977.84 338.359 1979.34 337.278Z" fill="white"/>
<path d="M109.574 961.835C109.443 960.987 109.312 960.139 109.684 958.337C110.141 956.706 110.096 956.029 110.051 955.351C112.494 936.105 112.092 916.948 110.084 897.617C109.301 890.081 112.031 881.88 114.412 874.379C118.637 861.069 123.839 848.071 128.587 834.926C130.307 830.163 132.242 825.811 137.395 823.495C139.683 822.466 141.662 820.25 143.208 818.15C153.27 804.49 163.175 790.714 174.159 776.173C177.552 771.397 181.365 768.128 182.275 761.7C178.621 764.882 176.173 767.013 173.535 769.31C172.415 765.251 171.062 763.735 168.627 767.828C164.871 770.107 161.115 772.387 156.744 775.039C157.334 771.648 157.951 768.105 158.847 762.955C155.9 766.79 153.954 769.322 151.59 772.398C151.271 770.367 151.083 769.17 150.707 766.776C148.836 768.542 147.388 769.91 145.942 771.276C145.185 770.419 144.377 769.504 143.305 768.292C141.471 771.285 139.801 774.009 137.881 777.141C137.038 775.668 136.491 774.711 135.806 773.514C134.372 774.643 132.972 775.745 131.44 776.951C130.804 775.218 130.276 773.779 129.752 772.352C129.079 772.495 128.047 772.555 128.023 772.742C127.418 777.562 126.118 782.469 126.554 787.212C127.678 799.43 124.78 811.018 122.026 822.643C121.671 824.139 119.328 825.163 116.691 827.468C114.108 841.835 111.455 858.191 108.154 874.416C105.67 886.622 100.916 897.872 91.0686 906.279C89.8289 907.337 88.3666 908.551 87.8648 909.992C83.6102 922.209 72.7442 929.132 65.1106 938.621C57.3433 948.276 47.006 949.952 35.4866 946.977C31.3141 945.9 26.9193 945.439 22.9573 943.864C19.4945 942.487 16.4968 939.94 12.4834 937.397C15.0479 935.148 16.4137 933.95 18.4097 932.2C12.389 928.67 6.44363 925.185 0 921.407C1.16096 916.449 4.50568 914.27 9.03789 913.652C13.3192 913.069 17.6587 912.928 21.9573 912.453C25.0594 912.11 28.1362 911.539 32.7225 910.843C15.821 901.98 15.6404 901.601 23.3242 892.746C26.5523 893.79 29.9723 894.897 33.3736 895.997C35.2068 894.922 36.8062 893.466 38.6594 892.982C49.6467 890.111 55.6665 882.546 59.68 872.406C64.5448 860.114 70.6853 848.252 70.746 833.769C64.4255 835.547 64.5104 842.634 58.2861 845.461C59.1871 835.556 59.9988 826.632 60.938 816.307C58.4151 818.659 56.8774 820.092 54.6879 822.133C54.6879 816.39 54.6879 811.301 54.6879 805.167C52.4509 806.281 51.1115 806.948 48.3539 808.321C50.4552 799.362 52.3686 791.203 54.3747 782.65C52.5252 783.909 50.9983 784.948 47.6462 787.23C50.0964 778.127 51.6286 770.716 54.106 763.635C57.8056 753.061 56.3113 742.241 57.806 730.105C54.7127 731.397 53.1129 732.065 51.4593 732.756C51.3992 732.469 51.1946 732.006 51.2258 731.559C51.5729 726.597 57.7605 724.08 55.9191 717.544C54.8253 713.662 62.2856 710.636 60.921 704.723C60.5867 703.274 63.044 700.596 64.8234 699.345C72.9292 693.642 81.2201 688.198 89.5357 682.801C90.5342 682.153 92.0879 682.361 94.7383 682.128C97.4531 681.22 98.8138 680.355 100.174 679.49C100.174 679.49 100.279 679.399 101.056 679.516C104.563 679.341 108.074 677.716 107.29 683.18C107.232 683.591 110.152 684.429 111.99 685.315C112.294 685.56 112.884 686.07 113.333 686.527C117.823 687.762 120.423 685.81 123.287 683.095C125.113 681.364 128.873 680.262 131.222 680.895C133.53 681.517 135.15 684.687 137.498 687.195C140.93 685.556 144.723 683.745 148.516 681.933C154.294 679.681 160.072 677.428 165.85 675.175C166.049 675.592 166.247 676.009 166.446 676.426C165.397 677.195 164.348 677.965 163.299 678.734C163.321 679.219 163.344 679.704 163.366 680.188C172.945 679.211 182.524 678.235 193.653 677.1C191.479 679.928 190.307 681.452 189.135 682.976C193.517 680.126 197.559 683.007 201.531 682.903C207.018 682.759 212.457 680.79 218.802 680.761C217.318 680.494 215.835 680.227 214.351 679.96C215.214 681.376 216.078 682.791 216.941 684.207C224.24 683.424 231.54 682.641 240.001 682.143C238.672 684.962 236.181 687.495 233.69 690.029C234.142 690.559 234.595 691.09 235.047 691.62C240.237 687.729 245.428 683.837 250.618 679.946C267.576 676.494 284.541 673.076 301.482 669.541C303.395 669.142 305.248 668.231 306.999 667.308C319.326 660.813 331.617 654.248 343.931 647.726C344.503 647.423 345.471 647.512 345.748 647.087C346.231 646.346 346.035 644.924 346.623 644.53C349.037 642.91 351.509 641.239 354.194 640.179C373.333 632.621 392.064 623.723 413.218 622.828C417.122 622.663 421.632 621.738 421.946 616.209C429.44 615.691 436.926 615.174 444.641 614.641C444.002 612.348 443.686 611.213 443.373 610.086C444.083 609.739 444.629 609.267 445.208 609.221C453.416 608.566 460.921 610.835 468.322 614.254C474.32 617.025 480.554 619.469 486.91 621.241C499.331 624.704 509.592 630.552 515.097 642.923C517.372 648.035 519.94 653.031 522.631 657.939C523.695 659.879 525.283 661.627 526.933 663.133C535.368 670.836 541.983 679.03 538.739 691.768C538.08 694.356 539.404 698.765 541.403 700.471C547.749 705.886 549.185 711.72 545.725 717.691C548.491 724.178 550.613 729.735 553.205 735.062C555.671 740.13 558.629 744.958 561.967 749.603C562.99 756.109 555.867 754.519 552.457 758.445C553.993 760.295 555.666 762.31 558.103 765.245C555.424 766.889 553.102 769.518 551.267 769.213C545.606 768.272 542.028 771.804 537.565 773.731C533.973 775.281 530.655 778.431 525.627 776.407C523.036 775.364 517.651 776.019 516.442 777.84C513.595 782.13 510.063 781.049 506.665 780.8C497.292 780.113 488.743 782.383 480.761 787.12C478.882 788.235 477.136 789.576 475.239 790.875C474.458 789.827 473.251 788.208 471.197 785.452C470.912 790.594 470.703 794.348 470.36 800.528C467.648 795.064 465.969 791.682 464.291 788.3C463.915 788.405 463.538 788.51 463.162 788.615C464.162 795.208 465.162 801.801 466.162 808.394C465.71 808.616 465.257 808.838 464.805 809.06C463.079 806.297 461.354 803.534 459.642 800.794C455.731 803.015 462.306 809.881 455.209 810.63C455.581 815.26 456.358 819.903 456.214 824.518C456.066 829.256 455.017 833.967 454.164 840.118C452.98 837.51 452.471 836.386 452.171 835.725C449.274 841.69 446.109 847.869 443.259 854.191C441.295 858.55 442.722 863.618 439.148 868.033C435.26 872.837 432.993 879.14 430.567 884.81C428.014 890.776 428.65 898.152 428.152 904.931C427.937 907.859 428.372 910.835 428.564 914.903C426.831 912.499 425.788 911.053 424.727 909.581C423.979 910.212 423.178 910.549 423.092 911.018C422.614 913.617 421.264 916.698 422.159 918.776C424.212 923.543 418.347 921.771 418.296 924.308C418.243 926.928 418.925 929.709 418.24 932.122C417.741 933.882 415.015 934.929 414.239 936.711C413.232 939.021 412.335 941.965 412.927 944.235C413.636 946.954 411.928 949.228 412.126 950.811C412.747 955.792 408.564 951.814 407.644 954.804C408.261 956.257 409.237 958.554 410.308 961.074C408.938 960.886 408.044 960.763 406.306 960.525C407.603 963.283 408.861 965.523 409.73 967.906C411.133 971.758 413.043 975.07 411.114 979.979C409.425 984.278 410.957 989.588 414.171 993.996C417.433 998.473 419.877 1003.55 423.333 1009.48C421.026 1008.96 420.107 1008.76 418.247 1008.34C420.503 1012.52 422.658 1016.1 424.424 1019.86C429.348 1030.35 433.824 1041.06 439.003 1051.42C446.761 1066.94 455.272 1081.89 469.789 1092.56C473.448 1095.25 480.604 1097.58 476.514 1105.29C476.124 1106.03 478.55 1108.47 479.914 1109.88C483.38 1113.47 487.193 1116.74 490.476 1120.48C493.706 1124.16 496.917 1127.83 496.971 1133.45C496.997 1136.22 498.849 1139.09 500.229 1141.72C505.451 1151.71 505.671 1162.2 504.772 1173.18C503.934 1183.4 504.593 1193.75 504.593 1204.37C498.455 1205.44 495.271 1201.97 493.572 1197.69C491.929 1193.54 491.639 1188.86 490.333 1182.3C484.083 1203.85 468.316 1214.82 454.11 1227.97C449.479 1221.39 440.321 1219.19 442.554 1209.61C436.737 1203.8 438.303 1196.98 440.672 1189.01C437.019 1191.61 434.438 1193.45 431.422 1195.59C429.035 1191.15 429.763 1187.41 431.537 1183.82C432.71 1181.45 434.014 1178.98 435.836 1177.12C446.59 1166.15 444.127 1153.41 441.019 1140.56C440.72 1139.32 440.06 1138.01 439.191 1137.1C433.751 1131.37 427.964 1125.96 422.773 1120.02C419.076 1115.78 416.29 1110.77 412.794 1106.34C410.595 1103.56 407.837 1101.22 404.995 1097.45C403.507 1094.33 402.356 1092.45 401.923 1091.75C397.815 1091.75 395.159 1091.75 392.507 1091.24C392.271 1090.13 392.031 1089.54 391.79 1088.94C391.528 1089.13 391.024 1089.46 391.037 1089.48C391.5 1090.25 392.011 1090.99 392.432 1092.46C391.73 1098.88 391.112 1104.57 390.389 1111.23C390.549 1114.18 390.767 1118.24 390.989 1122.29C391.361 1129.06 387.428 1134.91 386.571 1141.69C386.308 1141.91 385.773 1142.34 385.07 1142.42C380.899 1146.53 380.769 1151.38 380.967 1156.32C381.092 1158.28 381.218 1160.24 380.677 1163.03C378.429 1166.16 376.086 1168.28 375.448 1170.82C374.541 1174.44 372.065 1174.86 370.138 1175.27C369.29 1179.78 369.268 1184.22 367.587 1187.9C364.599 1194.45 363.394 1200.85 365.538 1207.77C365.597 1209.18 365.656 1210.6 365.003 1212.59C363.114 1212.92 361.937 1212.67 360.657 1212.4C360.948 1217.79 361.003 1222.81 361.589 1227.75C361.837 1229.85 363.202 1231.82 364.059 1233.85C367.423 1246.52 374.805 1254.81 387.486 1259.8C398.776 1264.24 409.115 1271.2 419.643 1277.44C424.607 1280.38 429.437 1282.03 435.369 1282.26C442.539 1282.53 449.712 1284.32 456.734 1286.06C459.456 1286.74 462.055 1288.77 464.158 1290.77C465.408 1291.95 466.295 1294.34 466.117 1296.07C465.4 1303.04 456.47 1309.71 449.313 1308.99C448.058 1308.87 446.815 1308.63 444.909 1308.35C444.581 1310.56 444.311 1312.38 443.479 1315.42C439.67 1318.51 436.623 1321.32 433.138 1322.05C423.879 1324 417.887 1318.37 412.262 1311.2C408.955 1311.37 406.103 1311.97 402.516 1312.54C397.935 1312.35 394.09 1312.2 389.534 1311.93C382.328 1308.5 375.772 1305.31 369.35 1301.86C358.87 1296.24 347.112 1294.49 336.685 1298.51C329.451 1301.29 322.754 1301.14 315.91 1301.2C305.186 1301.3 295.433 1292.28 296.35 1282.59C297.275 1272.83 299.105 1262.67 303.038 1253.79C307.746 1243.15 310.764 1232.61 310.115 1221.16C309.16 1204.31 309.553 1187.28 303.049 1171.14C301.34 1166.89 300.717 1162.11 300.197 1157.51C298.043 1138.45 296.477 1119.38 299.406 1100.23C299.74 1098.04 299.087 1095.62 298.509 1093.41C297.544 1089.71 296.381 1086.06 295.057 1082.48C294.676 1081.45 293.461 1080.73 292.03 1079.73C290.996 1078.91 290.561 1078.22 290.243 1076.78C290.425 1071.36 292.536 1066.54 289.46 1060.95C288.041 1065.13 286.349 1067.56 282.294 1066.04C282.168 1065.91 281.863 1066.11 281.732 1065.53C280.524 1063.24 279.447 1061.53 278.338 1059.14C274.021 1055.73 271.05 1052.43 269.742 1047.05C268.594 1042.33 265.44 1038.1 263.171 1033.66C263.503 1043.51 270.337 1051.83 267.384 1062.2C265.953 1060.84 264.966 1059.91 263.763 1058.76C264.297 1062.9 265.988 1066.84 264.915 1069.78C263.202 1074.46 264.235 1078 266.499 1082.56C266.412 1084.75 266.252 1086.17 265.858 1089.7C263.714 1084.88 262.437 1082.02 260.95 1078.68C259.328 1085.48 262.848 1091.81 258.618 1098.5C254.665 1104.76 253.934 1113.05 251.619 1121.01C250.518 1119.44 250.021 1118.72 249.627 1118.16C249.265 1122.2 248.923 1126.02 247.912 1129.39C244.734 1125.24 249.25 1119.44 242.701 1115.47C242.701 1122.43 242.701 1128.19 242.638 1134.63C241.506 1136.95 243.973 1141.14 238.858 1140.11C238.011 1139.93 236.476 1143.17 235.259 1144.83C231.734 1140.83 233.186 1145.6 232.732 1146.4C232.159 1147.42 232.107 1148.73 231.59 1150.95C230.243 1144.62 229.161 1139.55 227.67 1132.55C226.171 1141.2 228.926 1148.43 223.578 1154.27C220.492 1151 218.585 1151.41 216.526 1154.82C213.984 1159.02 210.996 1162.96 208.073 1167.2C207.129 1165.48 206.448 1164.24 205.265 1162.09C204.022 1168.56 202.798 1173.67 196.369 1176.49C195.927 1173.82 195.58 1171.71 195.06 1168.56C191.13 1177.19 187.773 1184.56 183.462 1194.03C182.635 1189.52 182.245 1187.39 181.914 1185.58C175.44 1199.74 158.271 1204.01 151.46 1219.12C150.627 1216.2 150.191 1214.68 149.6 1212.61C147.392 1217.21 145.5 1221.15 143.217 1225.91C142.313 1223.61 141.848 1222.42 141.276 1220.96C139.362 1224.83 137.534 1228.52 135.689 1232.24C132.157 1228.98 132.758 1233.46 131.601 1234.81C130.94 1233.54 130.296 1232.31 129.332 1230.46C127.308 1236.07 127.62 1241.83 122.169 1244.56C121.113 1243.35 120.321 1242.44 119.127 1241.07C118.738 1243.83 118.863 1246.29 118.019 1248.35C114.756 1256.34 118.475 1261.91 124.156 1266.69C127.449 1269.46 131.035 1271.94 134.73 1274.16C145.044 1280.34 156.016 1284.88 167.736 1287.87C173.772 1289.41 179.72 1291.89 185.147 1294.95C187.562 1296.31 189.756 1300.04 189.969 1302.85C190.269 1306.82 186.799 1309 182.979 1310.17C179.997 1311.08 177.145 1312.42 173.426 1313.63C166.629 1314.8 160.642 1315.91 153.744 1317.18C152.272 1320.15 150.391 1323.94 148.51 1327.74C146.377 1327.74 144.244 1327.74 141.643 1327.05C132.76 1311.96 117.633 1314.43 104.536 1311.79C102.779 1311.1 100.851 1310.68 99.2916 1309.68C90.0923 1303.78 80.4403 1302.56 69.9429 1305.75C59.6112 1308.88 49.9829 1304.85 41.6437 1299.9C33.9177 1295.31 29.5676 1286.87 32.2527 1277.46C34.5936 1269.25 37.44 1260.73 42.1635 1253.77C51.303 1240.3 62.1375 1228 71.8496 1214.91C78.2536 1206.27 83.9969 1197.14 89.8653 1188.12C91.1086 1186.21 92.0738 1183.88 92.3752 1181.64C94.1242 1168.61 100.655 1157.32 105.541 1145.49C111.256 1131.66 121.7 1122.29 135.186 1115.35C144.096 1110.76 150.265 1102.14 155.324 1093.37C156.46 1091.4 155.88 1088.15 155.429 1085.61C152.948 1071.59 150.335 1057.76 143.69 1044.74C139.555 1036.63 138.282 1027.07 135.219 1017.32C134.453 1013.42 134.193 1010.37 133.932 1007.32C133.412 1007.41 132.892 1007.5 132.371 1007.59C133.028 1011.03 133.685 1014.47 134.341 1017.91C134.133 1018.85 133.926 1019.8 133.394 1022.21C131.093 1015.84 129.192 1010.57 127.018 1004.54C126.584 1007.63 126.216 1010.24 125.695 1013.95C123.553 1007.42 121.706 1001.8 119.149 994.007C118.26 997.733 117.856 999.423 117.453 1001.11C117.097 1001.16 116.742 1001.21 116.386 1001.26C115.14 992.02 113.893 982.783 112.69 972.015C111.68 967.601 110.627 964.718 109.574 961.835ZM324.461 950.773C330.049 958.243 335.637 965.714 341.225 973.184C342.243 966.866 342.376 960.797 340.425 955.495C337.704 948.1 333.52 941.256 334.484 932.923C334.557 932.293 334.44 931.143 334.138 931.041C327.758 928.877 330.488 923.589 330.689 919.718C330.979 914.15 332.566 908.66 333.412 903.108C334.086 898.688 334.479 894.226 335.247 887.634C331.421 890.665 327.811 892.152 327.724 893.824C327.271 902.468 318.149 905.298 315.839 912.647C315.25 914.521 312.155 915.193 312.26 918.483C312.634 930.178 312.534 941.882 324.461 950.773Z" fill="white"/>
<path d="M1400.29 1103.45C1398.07 1105.9 1395.84 1108.34 1393.62 1110.78C1391.27 1106.38 1389.1 1110.63 1386.27 1110.98C1386.97 1109.02 1387.59 1107.29 1388.11 1105.83C1382.17 1103.22 1378.1 1105.94 1373.7 1109.96C1369.57 1113.75 1364.21 1116.19 1359.69 1119.03C1361.34 1116.42 1363.36 1113.25 1365.83 1109.35C1355.83 1109.87 1353.62 1119.27 1346.75 1123.56C1346.97 1122.15 1347.08 1121.28 1347.24 1120.42C1347.39 1119.6 1347.59 1118.78 1347.96 1117.04C1341.74 1119.4 1340.24 1125.1 1336.52 1128.53C1332.95 1131.8 1329.39 1135.1 1324.87 1139.26C1325.64 1136.08 1326.1 1134.15 1326.6 1132.05C1320.26 1136.51 1314.45 1140.6 1308.64 1144.7C1309.38 1142.64 1310.19 1140.38 1311.02 1138.09C1302.95 1136.2 1302 1142.73 1299.39 1146.98C1296.64 1151.46 1294.22 1156.13 1290.59 1160.28C1291.35 1156.49 1292.1 1152.71 1293.29 1146.73C1290.13 1149.53 1287.79 1150.76 1286.71 1152.69C1278.94 1166.59 1269.49 1179.92 1267.47 1196.17C1266.51 1203.92 1266.07 1212.45 1268.31 1219.72C1271.82 1231.13 1270.81 1243.1 1274.46 1254.31C1275.66 1258 1276.45 1261.89 1278.17 1265.32C1283.46 1275.9 1279.99 1284.53 1268.7 1287.91C1263.07 1289.6 1258.47 1288.31 1254.28 1283.89C1249.76 1279.11 1244.69 1274.83 1239.69 1270.53C1232.42 1264.28 1224.78 1258.44 1217.69 1251.99C1210.82 1245.74 1209.57 1237.35 1212.04 1228.97C1215.82 1216.1 1215.59 1203.27 1212.43 1190.61C1209.79 1180.01 1206.07 1169.65 1202.25 1159.39C1199.46 1151.88 1196.55 1144.66 1196.46 1136.37C1196.32 1123.86 1201.47 1116.33 1213.84 1113.87C1219.35 1112.77 1225.1 1112.14 1230.7 1112.36C1241.49 1112.77 1250.67 1109.25 1259.81 1103.76C1279.39 1091.97 1296.54 1077.51 1311.82 1060.55C1322.52 1048.69 1333.71 1037.23 1345.21 1026.14C1360.69 1011.21 1378.11 999.154 1398.83 992.368C1405.39 990.221 1409.39 978.517 1406.22 972.412C1403.77 967.688 1401.57 962.834 1399.19 957.906C1398.88 958.11 1398.14 958.595 1397.31 959.147C1396.97 955.021 1396.63 950.856 1396.24 946.161C1394.9 947.567 1394.26 948.241 1392.98 949.594C1392.71 945.416 1392.49 942.025 1392.24 938.188C1390.81 939.476 1389.99 940.22 1388.33 941.728C1391.71 930.112 1382.9 923.597 1379.34 915.071C1376.99 909.451 1370.21 906.292 1370.64 899.185C1363.02 892.675 1364.93 881.674 1358.66 874.134C1356 870.925 1357.13 864.56 1356.46 858.092C1355.14 856.243 1353.91 855.932 1352.68 855.621C1351.73 846.138 1348.02 837.861 1342.34 830.234C1340.3 827.495 1338.83 824.004 1338.16 820.646C1337.2 815.782 1337.39 810.701 1336.74 805.759C1335.76 798.222 1334.06 790.76 1333.41 783.202C1332.44 771.947 1331.56 760.629 1331.7 749.351C1331.84 737.733 1333.49 726.142 1334.04 714.519C1334.34 708.129 1335.92 701.783 1332.85 695.222C1331.38 692.06 1333 687.405 1333.37 683.44C1333.71 679.84 1334.26 676.261 1334.83 671.776C1329.33 673.767 1330.05 678.359 1328.73 681.591C1324.61 691.716 1320.81 701.97 1316.67 712.089C1315.69 714.484 1313.91 716.548 1312.27 719.109C1311.13 717.585 1310.31 716.487 1310.34 716.521C1303.83 729.426 1297.8 743.048 1290.32 755.823C1279.97 773.493 1271.88 791.907 1268.76 812.147C1267.24 821.992 1266.78 832.303 1273.46 840.897C1283.09 853.267 1284.72 866.825 1280.3 881.425C1277.9 889.359 1278.38 897.11 1281.31 904.791C1273.44 906.163 1270.3 905.2 1267.66 898.79C1265.54 893.654 1264.63 887.977 1263.57 882.465C1262.83 878.643 1262.75 874.694 1262.2 868.992C1249.59 887.141 1249.2 905.52 1253.8 924.606C1248.4 926.069 1245 924.455 1242.47 920.99C1240.52 918.317 1237.99 915.54 1237.43 912.494C1236.53 907.614 1234.3 904.459 1230.21 901.921C1228.7 900.985 1228.07 898.637 1226.94 895.554C1225.87 891.676 1224.9 889.178 1223.94 886.681C1223.33 886.863 1222.73 887.045 1222.13 887.228C1222.83 890.06 1223.54 892.892 1224.25 895.724C1224.29 896.601 1224.33 897.479 1223.89 899.305C1222.51 900.717 1221.61 901.179 1220.7 901.642C1214.17 886.934 1210.57 871.447 1208.86 855.527C1207.85 846.186 1208.74 836.998 1211.93 828.007C1214.19 821.65 1216.22 815.692 1215.74 808.111C1215.18 799.378 1219.95 790.306 1223.13 780.458C1223.98 778.867 1224.1 778.198 1224.21 777.53C1224.21 777.53 1224.54 776.732 1225.27 776.017C1228.09 771.626 1230.17 767.949 1232.26 764.273C1231.64 763.879 1231.02 763.486 1230.41 763.092C1228.38 765.416 1226.35 767.74 1224.32 770.065C1221.91 772.865 1219.5 775.666 1216.21 778.878C1214.86 778.676 1214.41 778.063 1213.96 777.45C1216.57 764.853 1222.85 753.957 1229.77 743.359C1232.08 739.822 1233.66 736.616 1233.53 731.71C1233.41 726.57 1236.89 721.25 1239.14 716.158C1243.27 706.8 1249.85 697.871 1251.26 688.16C1252.5 679.672 1256.28 672.988 1259.12 665.553C1262.01 657.989 1264.68 650.34 1267.4 642.857C1267.17 642.948 1266.18 643.348 1264.34 644.096C1266.74 635.324 1272.57 629.464 1278.1 623.653C1284.65 616.768 1285.28 608.017 1288.89 598.413C1285.89 599.993 1284.74 600.6 1283.55 601.228C1283.31 600.785 1282.69 600.142 1282.83 599.854C1285.52 594.18 1288.42 588.6 1291.03 582.89C1293.08 578.41 1294.8 573.779 1297.34 568.043C1300.02 561.091 1302.01 555.312 1304.01 549.532C1301.35 551.17 1300.09 553.65 1298.38 555.763C1296.62 557.942 1294.41 559.764 1292.4 561.742C1294.27 557.499 1296.13 553.255 1298.83 548.012C1302 542.968 1304.32 538.924 1306.65 534.88C1305.91 534.439 1305.17 533.998 1304.43 533.557C1301.79 537.617 1299.16 541.676 1296.53 545.736C1295.68 546.755 1294.84 547.775 1293.47 549.416C1291.83 540.376 1294.38 533.393 1299.7 526.744C1303.14 522.443 1305.33 517.16 1308.38 512.514C1310.55 509.195 1306.2 505.271 1309.98 502.031C1312.97 499.471 1315.38 496.187 1317.8 493.039C1318.99 491.495 1319.66 489.544 1320.51 487.753C1329.51 468.867 1343.71 455.556 1363.48 448.641C1367.61 447.195 1370.26 444.956 1372.41 441.431C1376.04 435.48 1379.6 429.464 1383.66 423.809C1388.16 417.53 1390.14 410.939 1387.9 402.234C1384.34 408.054 1381.19 413.217 1378.03 418.38C1378.8 403.799 1385.61 391.236 1389.44 377.03C1389.14 376.201 1388.93 376.164 1389.53 376.249C1390.35 375.57 1390.57 374.806 1391.32 373.68C1392.04 372.111 1392.23 370.905 1392.43 369.699C1395.54 358.775 1398.65 347.852 1402.55 335.858C1404.36 332.425 1405.38 330.063 1406.4 327.7C1405.84 327.416 1405.27 327.132 1404.71 326.848C1403.32 328.462 1401.92 330.075 1400.53 331.689C1399.54 332.57 1398.54 333.452 1396.07 335.645C1396.22 329.945 1398.41 326.562 1400.83 323.494C1403.08 320.645 1406.02 318.346 1408.36 315.56C1410.03 313.566 1412.97 310.257 1412.36 309.097C1408.33 301.409 1415.18 299.193 1418.71 295.667C1424.82 289.577 1431.55 284.122 1437.76 278.131C1443.96 272.142 1450.98 268.462 1459.69 267.436C1471.22 266.078 1482.65 263.871 1494.16 262.292C1505.95 260.674 1517.43 261.357 1527.84 268.098C1528.95 268.817 1530.12 269.579 1531.37 269.91C1547.67 274.21 1557.2 286.763 1566.99 298.997C1573.89 307.624 1574.68 318.246 1574.63 328.399C1574.6 334.551 1575.97 339.303 1579.11 344.089C1580.39 346.031 1581.14 348.365 1582.62 350.115C1588.42 356.993 1588.16 363.885 1582.68 371.126C1588.54 376.884 1589.51 383.772 1588.06 391.411C1587.66 393.516 1588.69 395.859 1588.81 398.107C1588.96 400.984 1588.84 403.874 1588.84 407.468C1581.32 406.634 1576.23 410.073 1571.75 415.288C1570.01 417.311 1566.99 418.278 1564.5 419.605C1561.29 421.31 1556.26 421.026 1556.9 426.788C1552.77 427.568 1548.31 429.682 1544.58 428.79C1539.87 427.662 1535.79 426.62 1530.73 427.565C1527.19 428.227 1523.05 425.699 1518.57 424.421C1519.45 427.314 1520.45 430.568 1521.44 433.827C1516.9 435.296 1516.9 435.295 1514.21 432.591C1510.57 435.029 1507 437.417 1503.04 440.07C1502.64 437.262 1502.31 434.993 1501.99 432.802C1499.05 431.222 1495.42 438.666 1495.95 444.868C1496.01 445.514 1495.96 446.169 1495.96 446.98C1494.97 447.052 1494.03 447.121 1492.31 447.246C1493.07 454.076 1492.69 461.087 1496.08 467.749C1499.09 473.658 1501.8 479.777 1503.96 486.039C1506.09 492.236 1507.23 498.77 1509.07 505.08C1511.28 512.671 1513.7 520.204 1516.15 527.72C1519.14 536.875 1520.79 545.852 1517.86 555.604C1516.64 559.643 1518.97 564.633 1519 569.195C1519.01 572.615 1519.09 577.263 1517.07 579.201C1513.27 582.843 1513.4 587.996 1514.2 590.793C1515.81 596.435 1515.98 602.014 1514.67 607.044C1512.39 615.816 1515.03 624.331 1514.26 632.916C1513.42 642.404 1513.18 652.011 1511.42 661.332C1510.14 668.142 1507.64 675.029 1504.2 681.032C1501.23 686.214 1502.66 692.241 1499.45 697.11C1498.9 697.948 1499 699.806 1499.57 700.69C1502.04 704.5 1497.76 703.121 1497.29 704.06C1494.64 709.257 1492.4 714.719 1490.71 720.299C1490.29 721.697 1491.95 724.672 1493.45 725.549C1502.6 730.885 1511.97 735.835 1521.28 740.894C1533.32 747.431 1544.72 746.768 1555.74 738.316C1561.23 734.1 1566.7 729.236 1575.01 731.682C1580.8 713.4 1594.9 702.925 1609.19 692.533C1612.93 689.81 1616 686.18 1619.61 683.249C1622.63 680.797 1625.99 678.756 1630.3 675.762C1628.9 694.286 1626.21 710.912 1619.7 726.642C1615.66 736.411 1610.52 745.722 1606.29 755.419C1605.39 757.486 1605.35 760.994 1606.54 762.707C1609.93 767.583 1609.09 771.348 1606.39 776.34C1603.48 781.73 1602.42 788.112 1600.47 794.035C1600.07 795.265 1599.61 796.836 1598.66 797.473C1589.68 803.495 1582.22 812.471 1570.8 813.962C1557.7 815.673 1545.89 811.483 1535.02 804.2C1529.54 800.521 1523.83 797.166 1517.24 792.931C1515.07 792.005 1513.89 791.812 1512.71 791.619C1512.71 791.619 1512.63 791.533 1512.18 790.997C1508.04 789.229 1504.34 787.997 1500.65 786.765C1500.48 787.156 1500.31 787.548 1500.15 787.939C1502.37 790.369 1504.59 792.798 1506.81 795.228C1508.44 799.417 1510.08 803.607 1512.51 809.856C1508.09 806.17 1505.28 803.828 1501.74 800.868C1501.02 800.25 1500.29 799.835 1500.01 799.23C1494.5 794.57 1490.66 788.513 1482.84 787.887C1487 791.864 1491.17 795.841 1495.6 800.32C1496.74 801.502 1497.62 802.183 1498.5 802.863C1504.59 811.055 1510.68 819.247 1516.76 827.439C1516.4 827.807 1516.04 828.175 1515.68 828.542C1514.16 828.009 1512.65 827.475 1511.32 827.008C1511.56 839.455 1519.88 848.357 1524.49 859.485C1522.07 858.65 1519.92 857.085 1517.76 855.52C1517.21 856.002 1516.66 856.485 1516.11 856.968C1518.7 861.255 1521.29 865.543 1523.87 869.83C1530.84 882.593 1539.99 894.22 1543.03 909.008C1543.78 912.657 1546.84 915.858 1548.95 919.195C1553.91 927.045 1559.48 934.568 1563.79 942.759C1568.14 951.028 1569.02 960.441 1564.7 968.844C1555.43 986.896 1555.47 1006.65 1552.56 1025.94C1549.19 1048.3 1544.93 1070.53 1541.15 1092.83C1536.96 1117.58 1526.93 1140.55 1519.67 1164.36C1514.84 1180.22 1510.68 1196.37 1507.74 1212.66C1506.12 1221.61 1507.16 1231.17 1507.98 1240.37C1508.26 1243.6 1510.93 1247.08 1513.41 1249.53C1516.43 1252.52 1520.16 1255.04 1524.01 1256.88C1535.32 1262.28 1544.99 1269.74 1553.31 1279.01C1557 1283.13 1561.31 1285.25 1566.86 1286.5C1577.18 1288.83 1587.21 1292.47 1597.33 1295.68C1599.53 1296.38 1601.76 1297.3 1603.68 1298.57C1611 1303.4 1614.11 1302.7 1609.6 1315.02C1604.75 1317.1 1600.62 1318.15 1596.76 1319.82C1591.77 1321.97 1585.37 1321.72 1582.51 1327.74C1579.08 1327.74 1575.65 1327.74 1571.5 1326.99C1564.92 1322.67 1563.57 1322.87 1560.51 1327.74C1557.73 1327.74 1554.95 1327.74 1551.43 1326.99C1547.33 1324.96 1544.05 1323.47 1540.63 1322.46C1519.24 1316.13 1497.88 1313.94 1476.1 1321.41C1461.23 1326.51 1448.25 1321.35 1436.72 1311.63C1433.23 1307.44 1433.37 1302.6 1433.79 1297.5C1435.58 1275.61 1440.65 1254.4 1447.43 1232.16C1449.06 1226.88 1450.18 1222.81 1450.57 1218.68C1450.92 1215 1450.46 1211.25 1450.51 1206.82C1452.3 1202.04 1453.95 1197.98 1455.59 1193.92C1455.09 1193.62 1454.59 1193.32 1454.08 1193.02C1452.9 1193.94 1451.72 1194.86 1450 1195.4C1449.66 1192.42 1449.85 1189.82 1450.22 1186.5C1452.8 1177.8 1455.22 1169.8 1458.06 1161.32C1460.84 1155.23 1456.09 1149.24 1459.32 1143.62C1459.35 1143.57 1457.43 1142.39 1456.55 1141.03C1457.81 1136.73 1458.94 1133.13 1460.37 1128.86C1462.65 1122.5 1464.64 1116.81 1466.63 1111.11C1460.65 1115.33 1460.29 1121.77 1457.75 1127.33C1456.45 1125.21 1455.76 1123.31 1455.06 1121.4C1454.99 1120.59 1454.91 1119.77 1455.16 1117.85C1453.2 1111.63 1452.8 1106.65 1456.36 1101.86C1456.73 1101.37 1456.76 1100.62 1457.43 1099.51C1457.44 1095.94 1456.97 1092.84 1456.5 1089.75C1457.69 1086.78 1458.88 1083.82 1460.72 1079.73C1463.17 1074.79 1464.97 1070.97 1466.77 1067.16C1466.12 1066.83 1465.47 1066.5 1464.82 1066.17C1462.68 1069.33 1460.54 1072.49 1458.4 1075.65C1457.86 1076 1457.41 1076.44 1456.16 1077.22C1454.78 1076.78 1454.28 1076.09 1453.78 1075.4C1455.36 1069.71 1456.95 1064.02 1459.15 1056.12C1455.69 1060.15 1453.68 1062.49 1450.83 1065.8C1451.34 1062.88 1451.66 1060.98 1451.99 1059.08C1451.62 1058.9 1451.24 1058.72 1450.87 1058.55C1447.39 1063.4 1444.16 1068.46 1440.36 1073.04C1435.98 1078.34 1431.09 1083.23 1426.4 1088.27C1426.24 1088.45 1425.82 1088.38 1425.53 1088.43C1425.51 1088.09 1425.5 1087.76 1425.88 1086.61C1427.05 1084.2 1427.83 1082.6 1428.61 1081.01C1428.18 1080.77 1427.76 1080.54 1427.33 1080.3C1426.27 1082 1425.2 1083.71 1424.14 1085.41C1421.28 1087.94 1418.42 1090.47 1414.57 1093.16C1414.07 1091.46 1414.55 1089.59 1415.42 1086.21C1410.35 1091.95 1406.27 1096.56 1402.2 1101.17C1402.2 1101.17 1402.07 1101.32 1401.5 1101.47C1400.72 1102.23 1400.5 1102.84 1400.29 1103.45ZM1533.67 793.538C1536.44 794.182 1539.21 794.825 1541.98 795.465C1546.72 803.201 1546.72 803.201 1557.81 807.228C1554.38 792.158 1539.7 793.059 1528.54 788.262C1529.81 789.943 1531.08 791.624 1533.67 793.538ZM1567.91 807.097C1566.31 805.38 1564.7 803.664 1563.1 801.947C1562.62 802.415 1562.14 802.882 1561.66 803.349C1563.53 805.253 1562.21 810.349 1567.91 807.097ZM1316.47 515.077C1316.87 514.323 1317.28 513.569 1317.68 512.814C1317.3 512.421 1316.92 512.027 1316.54 511.633C1314.15 513.752 1311.76 515.87 1309.36 517.989C1309.8 518.525 1310.24 519.062 1310.68 519.598C1312.31 518.39 1313.93 517.183 1316.47 515.077ZM1334.54 693.595C1334.54 694.831 1334.54 696.066 1334.54 697.301C1335.06 697.216 1335.59 697.131 1336.12 697.046C1335.66 695.418 1335.2 693.791 1334.54 693.595Z" fill="white"/>
<path d="M752.869 1219.84C752.83 1226.5 752.79 1233.16 752.797 1241.26C753.453 1243.6 754.064 1244.51 754.674 1245.42C756.756 1252.27 760.077 1258.13 766.613 1261.83C768.885 1263.11 770.806 1265.08 772.722 1266.92C778.49 1272.43 777.328 1277.87 769.862 1280.31C767.987 1280.92 765.99 1281.16 763.658 1281.66C762.9 1284.11 762.151 1286.53 761.422 1288.89C760.145 1289.18 759.202 1289.44 758.241 1289.59C754.687 1290.17 751.138 1291.06 747.566 1291.17C742.692 1291.32 737.152 1292.27 733.046 1290.38C723.766 1286.12 714.977 1280.64 706.382 1275.06C695.512 1267.99 691.137 1256.53 689.478 1244.56C688.082 1234.5 684.63 1224.89 685.478 1214.13C686.142 1205.69 681.828 1196.87 679.802 1188.21C679.046 1184.98 678.455 1181.7 677.879 1178.43C675.667 1165.87 679.91 1158.23 692.161 1155.27C698.11 1153.83 704.713 1153.85 710.817 1154.69C715.47 1155.33 719.125 1154.95 722.978 1152.43C729.381 1148.24 736.057 1144.47 742.508 1140.35C753.692 1133.22 762.852 1123.83 768.722 1112.07C782.401 1084.66 803.85 1065.65 830.624 1051.87C835.35 1049.44 839.656 1046.19 844.361 1043.71C857.074 1037.02 864.661 1026.99 865.597 1012.36C865.702 1010.71 866.159 1009.08 866.908 1006.34C867.795 1004.62 867.742 1004.05 867.203 1003.52C867.508 1002.13 867.812 1000.74 868.476 997.966C868.811 990.816 868.787 985.05 868.763 979.283C866.429 981.855 865.885 984.404 865.292 986.943C864.326 991.071 861.645 991.071 858.435 989.746C858.591 986.425 858.394 983.039 858.984 979.797C859.869 974.933 859.483 970.586 855.447 966.956C854.291 971.298 853.072 975.874 851.566 981.526C849.683 970.506 847.989 960.595 846.18 950.009C843.827 956.001 841.798 961.169 838.81 968.776C837.703 962.554 837.002 958.618 836.112 953.615C834.734 955.141 833.793 956.182 832.85 957.221C828.638 954.875 827.373 951.43 828.398 946.726C828.789 944.932 828.421 942.756 827.749 941.004C826.996 939.04 824.541 939.954 822.545 943.287C815.24 935.331 812.456 925.529 809.772 914.942C809 916.993 808.468 918.405 807.84 920.073C806.456 919.732 805.045 919.385 803.116 918.909C802.701 922.507 802.298 925.995 801.658 931.531C798.154 919.138 796.251 908.211 789.42 898.652C788.661 900.695 788.125 902.138 787.332 904.275C785.475 899.706 783.846 895.694 781.946 891.018C780.826 892.985 780.129 894.208 778.841 896.469C775.301 887.492 772.038 879.218 768.454 870.13C763.95 873.66 760.903 873.532 758.764 867.975C754.639 857.262 752.754 846.254 752.661 834.851C752.556 821.904 751.885 808.936 752.405 796.015C752.977 781.767 754.63 767.562 755.788 753.336C755.884 752.158 755.801 750.965 755.801 747.995C753.187 750.851 751.865 752.315 750.496 753.733C750.434 753.797 749.866 753.52 749.687 753.285C749.501 753.042 749.502 752.657 749.641 751.91C749.882 750.574 749.932 749.661 749.859 748.757C749.855 748.698 748.905 748.714 748.396 748.696C748.439 749.713 748.483 750.73 748.527 751.748C747.43 752.567 746.332 753.386 744.814 754.52C743.637 752.64 742.397 750.661 741.235 748.805C736.572 754.622 743.004 763.667 734.665 767.995C734.1 774.783 733.535 781.572 732.824 790.102C730.776 787.116 729.905 785.846 728.635 783.994C724.554 791.395 729.652 798.753 727.273 806.43C726.147 806.267 724.749 806.064 723.35 805.864C720.101 813.467 714.683 820.939 714.22 828.707C713.764 836.368 718.168 844.378 720.722 852.142C723.562 860.774 725.035 869.488 724.697 878.636C724.477 884.565 725.517 890.53 725.757 896.488C725.952 901.313 725.797 906.151 725.797 911.255C715.888 908.894 712.475 904.188 712.905 894.73C713.112 890.161 714.81 885.305 708.881 881.294C699.766 895.079 706.438 908.561 708.416 921.749C722.771 926.039 722.771 926.039 722.466 935.384C718.232 936.486 713.847 937.825 709.376 938.746C702.067 940.253 695.746 938.145 689.855 933.554C685.558 930.206 680.646 927.649 674.527 923.809C671.151 914.653 667.021 903.471 662.907 892.283C661.529 888.536 660.19 884.775 658.834 881.02C655.563 871.964 656.914 863.645 661.525 855.168C664.116 850.404 666.236 844.458 665.919 839.205C664.731 819.508 667.716 800.092 668.59 780.548C668.664 778.887 668.808 777.214 668.692 775.562C666.687 746.76 672.15 718.548 675.345 690.153C676.379 680.954 680.739 673.093 685.141 665.355C690.088 656.66 694.661 647.969 697.482 638.252C699.662 630.745 702.479 623.136 709.917 618.102C711.041 619.981 711.995 621.575 712.994 623.246C713.438 622.953 714.116 622.76 714.276 622.36C716.252 617.435 718.127 612.469 720.082 607.535C721.057 605.075 722.068 602.386 724.818 606.237C726.719 604.118 728.907 602.188 730.458 599.838C733.421 595.35 733.875 588.937 741.016 587.128C741.016 589.305 741.016 591.331 741.016 595.27C743.895 590.166 745.559 586.593 747.778 583.407C752.87 576.094 758.241 568.974 763.483 561.765C766.809 557.192 770.411 552.785 773.352 547.974C779.044 538.662 785.148 532.23 797.017 524.785C794.623 529.083 793.051 531.903 791.48 534.724C791.801 535.035 792.123 535.347 792.444 535.659C800.427 530.612 808.523 525.731 816.334 520.431C819.174 518.504 822.256 516.218 819.058 511.561C818.109 510.18 819.707 506.545 820.856 504.313C826.303 493.733 834.463 485.37 843.926 478.441C850.605 473.55 857.849 469.381 865.07 465.293C870.448 462.249 874.054 458.374 877.045 452.676C884.225 438.997 894.414 427.539 907.334 418.762C908.973 417.648 911.256 417.141 912.395 415.689C919.92 406.094 930.139 400.867 941.369 397.132C944.464 396.102 947.44 394.358 950.6 393.949C960.122 392.717 969.736 392.204 979.258 390.976C985.91 390.118 991.822 391.184 997.371 396.211C993.548 396.691 989.426 396.388 985.305 396.084C985.206 396.717 985.108 397.349 985.009 397.982C994.141 400.559 1003.27 403.136 1012.4 405.713C1017.23 408.476 1022.05 411.239 1028.29 414.81C1025 415.247 1023.59 415.435 1020.53 415.841C1022.8 418.634 1024.14 421.132 1026.2 422.691C1040.23 433.337 1049.53 447.828 1058.89 462.3C1059.78 463.68 1060.66 465.097 1061.74 466.322C1067.88 473.271 1067.9 473.253 1062.8 481.473C1059.09 487.476 1059.25 489.181 1064.44 494.307C1067.28 497.112 1070.49 499.561 1073.2 502.472C1076.65 506.162 1078.13 510.021 1074.55 514.938C1073.08 516.967 1072.68 520.498 1073.16 523.096C1074.62 531.062 1072.35 536.983 1068.09 544.194C1063.05 552.734 1054.65 557.615 1049.93 566.493C1040.79 562.111 1035.39 571.395 1027.25 572.471C1027.25 574.193 1027.25 576.318 1027.25 578.466C1019.42 572.343 1017.72 573.056 1016.07 583.286C1015.04 582.913 1014.05 582.551 1013.04 582.185C1012.34 585.016 1011.64 587.83 1010.6 592.008C1008.43 589.02 1007.03 587.097 1004.85 584.092C1004.85 589.059 1004.85 592.81 1004.85 596.561C1004.37 596.671 1003.88 596.782 1003.4 596.892C1002.21 593.16 1001.03 589.427 999.809 585.594C995.604 586.816 997.105 589.742 997.501 592.078C999.323 602.832 998.9 613.562 998.438 626.215C995.948 623.26 994.816 621.916 993.389 620.221C990.723 631.161 988.165 641.656 985.601 652.177C984.98 652.06 983.926 651.862 982.341 651.564C982.341 659.849 982.341 667.755 982.341 676.835C979.479 674.558 977.578 673.046 975.269 671.208C974.598 672.616 973.743 673.548 973.938 674.129C976.983 683.225 968.69 687.934 966.049 694.804C958.928 693.084 961.532 701.248 956.688 702.43C955.519 700.949 953.682 698.622 951.844 696.295C951.497 696.449 951.15 696.602 950.803 696.756C951.298 698.798 951.825 700.833 952.283 702.884C953.249 707.218 953.944 712.736 950.617 715.743C945.753 720.139 947.289 724.023 948.244 728.769C948.807 731.566 948.347 734.569 948.347 737.851C946.132 737.281 944.64 736.896 943.344 736.562C943.713 741.407 944.077 746.243 944.453 751.079C944.626 753.295 945.434 755.564 942.279 756.76C941.558 757.034 941.324 759.499 941.448 760.904C941.684 763.563 944.318 766.742 939.162 767.822C938.798 767.898 939.395 771.9 939.294 774.065C939.184 776.416 938.78 778.754 938.504 781.097C937.803 781.317 937.101 781.536 936.4 781.755C939.693 784.9 942.735 788.373 946.325 791.132C959.668 801.387 970.817 813.505 980.049 827.63C996.7 853.105 1016.67 875.727 1038.94 896.55C1049.93 906.822 1054.27 920.17 1048.64 935.645C1046.17 942.435 1045.5 949.876 1043.92 957.447C1033.92 961.188 1028.13 968.806 1026.5 979.83C1019.99 978.618 1017.98 975.027 1018.81 969.743C1019.27 966.823 1019.87 963.608 1021.47 961.245C1025.83 954.801 1024.53 948.917 1021.26 942.619C1018.73 937.754 1016.88 932.534 1014.73 927.472C1013.88 927.64 1013.03 927.808 1012.18 927.976C1012.59 931.893 1012.93 935.818 1013.41 939.725C1013.94 944.015 1014.94 948.275 1015.1 952.573C1015.27 956.734 1014.64 960.926 1014.32 965.556C1005.95 964.04 1002.63 958.568 1000.37 952.742C996.289 942.218 992.094 931.616 989.52 920.676C988.082 914.562 985.605 909.625 981.536 904.329C980.72 905.245 980.001 906.051 978.789 907.411C976.525 902.924 974.301 898.518 971.398 892.766C968.175 899.911 970.111 905.639 971.055 911.149C975.943 939.675 981.192 968.14 986.046 996.672C987.813 1007.05 988.837 1017.56 990.2 1028.01C984.889 1032 992.497 1039.22 986.4 1043.36C985.603 1043.9 986.948 1047.6 987.367 1050.25C986.184 1049.44 985.253 1048.8 983.622 1047.68C977.566 1056.29 970.624 1064.32 968.014 1075.13C967.595 1076.86 964.073 1077.67 963.092 1079.49C961.943 1081.64 962.81 1085.07 961.407 1086.83C953.592 1096.64 953.448 1096.53 953.714 1106.19C952.125 1106.76 949.78 1107.01 949.622 1107.74C948.742 1111.79 948.395 1115.96 947.766 1120.86C945.414 1119.27 944.19 1118.44 942.714 1117.44C939.471 1122.39 944.932 1129.53 938.206 1134.11C937.294 1132.16 936.536 1130.53 935.719 1128.78C935.304 1129.07 934.605 1129.33 934.594 1129.62C934.42 1134.17 934.323 1138.73 934.23 1143.29C934.162 1146.64 934.956 1149.52 931.633 1152.82C929.276 1155.16 930.396 1161 929.886 1166.05C928.438 1163.72 927.135 1161.63 924.555 1157.47C924.555 1164.9 924.555 1169.98 924.555 1175.89C915.922 1177.95 919.447 1185.22 918.327 1191.7C917.854 1192.42 917.978 1192.36 917.978 1192.36C912.125 1210.76 911.331 1215.33 914.404 1223.32C910.399 1222.29 908.015 1223.68 907.819 1227.91C907.626 1232.07 908.737 1236.33 908.243 1240.41C907.569 1246.01 909.793 1249.14 914.725 1250.95C921.47 1255.05 928.215 1259.15 934.862 1263.19C934.503 1263.45 933.567 1264.13 932.207 1265.11C938.908 1271.23 946.22 1275.61 955.138 1277.62C965.111 1279.87 975.172 1282.15 984.746 1285.64C997.262 1290.21 999.914 1298.79 992.52 1311.57C983.899 1317.76 976.522 1323.03 966.519 1322.51C963.721 1322.36 960.768 1323.73 958.031 1324.78C957.259 1325.08 957.003 1326.72 956.511 1327.74C950.449 1327.74 944.388 1327.74 937.54 1326.97C935.024 1325.46 933.351 1324.53 931.558 1324.01C917.799 1320.02 904.017 1316.11 889.452 1311.91C881.311 1308.24 873.751 1309.29 866.121 1310.4C856.238 1311.85 846.313 1313.14 836.531 1309.67C831.079 1303.28 830.83 1296.65 832.882 1288.36C837.507 1269.68 840.541 1250.59 844.222 1231.67C840.087 1220 848.906 1209.67 847.052 1197.52C845.471 1197.63 843.331 1197.79 841.188 1197.94C845.677 1181.62 849.748 1164.97 850.355 1147.78C849.632 1147.59 848.91 1147.4 848.187 1147.2C847.422 1148.75 846.656 1150.31 845.824 1151.99C842.399 1148.87 839.183 1150.72 836.978 1153.71C834.85 1156.6 833.681 1160.2 832.059 1163.55C828.329 1159.88 827.143 1160.23 821.479 1167.1C821.232 1165.09 821.07 1163.78 820.717 1160.9C819.02 1163.71 817.931 1165.51 816.659 1167.62C815.672 1166.86 814.713 1166.12 813.807 1165.42C808.059 1170.1 802.362 1174.75 796.063 1179.89C795.744 1179.43 794.738 1177.97 793.716 1176.5C790.954 1178.05 788.065 1179.67 784.768 1181.52C784.276 1180.53 783.445 1178.87 782.124 1176.24C780.513 1180.3 779.395 1183.12 776.83 1186.46C774.215 1185.42 773.048 1183.86 771.882 1182.29C771.355 1182.59 770.828 1182.88 770.301 1183.17C770.301 1186.64 770.301 1190.11 770.301 1193.58C770.111 1194.2 769.92 1194.82 769.73 1195.44C766.289 1193.85 766.757 1196.61 765.805 1198.77C764.602 1197.25 763.99 1195.41 763.505 1193.95C760.4 1202.55 750.989 1208.94 752.869 1219.84Z" fill="white"/>
</svg>
