<svg width="125" height="87" viewBox="0 0 125 87" fill="none" xmlns="http://www.w3.org/2000/svg">
<path d="M94.2954 0L82.1223 12.1731L83.2539 13.3484C82.4478 13.9995 81.6318 14.6348 80.8398 15.1987C79.5615 16.1118 78.3345 16.8442 77.5027 17.1877C77.449 17.2117 77.2229 17.2751 76.7742 17.2732C76.0574 17.281 74.8584 17.0984 73.3894 16.8743C71.9143 16.6519 70.1497 16.4099 68.1606 16.4077C66.4253 16.4019 64.5117 16.6123 62.4968 17.166C60.4861 16.6143 58.5762 16.4077 56.8452 16.4099C54.854 16.4099 53.0894 16.6521 51.6143 16.8765C50.1453 17.1006 48.9482 17.2834 48.2317 17.2754C47.781 17.2793 47.5566 17.2119 47.511 17.1899C46.6235 16.8267 45.2854 16.0166 43.908 15.0142C43.1953 14.4961 42.4688 13.9282 41.748 13.3447L42.8777 12.1733L30.7046 0.000244007L0 31.8022L12.1731 43.9753L15.7363 40.2849L23.6016 47.1494C23.8218 48.4656 24.2368 49.7083 24.7153 50.8877C25.0269 51.6382 25.3684 52.3606 25.718 53.0396C24.9575 54.2983 24.5427 55.7356 24.5466 57.1926C24.5447 58.6379 24.9417 60.1147 25.7576 61.427C26.9983 63.4221 28.9856 64.6768 31.1313 65.0737C31.1436 66.4932 31.5366 67.9404 32.3364 69.2268C33.8552 71.6687 36.4836 73.0225 39.1636 73.0183C39.2668 73.0183 39.3721 73.0024 39.4751 72.9985C39.6101 74.134 39.9834 75.2656 40.6226 76.2939C42.1414 78.7356 44.7715 80.0896 47.4475 80.0854C47.7136 80.0854 47.9778 80.0576 48.2456 80.0317C48.3726 81.0542 48.7122 82.0745 49.2859 82.9956C50.6697 85.2192 53.0637 86.4539 55.4993 86.448C56.8135 86.45 58.1594 86.0925 59.3545 85.3501L63.0034 83.0793C63.7222 83.5437 64.4763 83.9526 65.2683 84.2861C66.7434 84.9075 68.3374 85.2886 69.9951 85.2905C71.8135 85.2986 73.7332 84.8003 75.3848 83.6389C76.4607 82.8887 77.3718 81.8601 78.1182 80.6475C78.2334 80.6514 78.3267 80.6714 78.4458 80.6733C79.2021 80.6733 80.032 80.5601 80.854 80.304C81.6816 80.052 82.5037 79.6746 83.3811 79.1726C85.4734 77.9934 86.728 76.2583 87.3376 74.7715C87.4727 74.446 87.5698 74.1401 87.6572 73.8445C88.1636 73.6838 88.6479 73.4871 89.0864 73.2331C90.7043 72.302 91.7585 70.8867 92.4077 69.4653C93.0588 68.0298 93.3447 66.5391 93.3486 65.1059C93.3486 64.9648 93.3308 64.8279 93.3247 64.689C94.3828 64.2563 95.3335 63.6548 96.1436 62.946C96.9734 62.2192 97.6702 61.3738 98.1882 60.4089C98.7046 59.4482 99.05 58.3484 99.052 57.1436C99.054 56.3594 98.8931 55.5334 98.5417 54.7593C98.4285 54.5132 98.2678 54.2869 98.1208 54.0586C98.7385 52.9526 99.3674 51.7063 99.8835 50.3604C100.271 49.3418 100.596 48.2739 100.783 47.1521L108.984 39.9956L112.827 43.9758L125 31.8022L94.2954 0ZM33.873 58.9536L33.7319 59.043C33.3647 59.2695 32.9795 59.3706 32.5825 59.3726C31.8459 59.3687 31.1392 59.0093 30.7244 58.3403C30.498 57.9731 30.3948 57.5859 30.3948 57.1929C30.3987 56.4524 30.7561 55.7495 31.4231 55.3347L36.2451 52.3391C36.6123 52.1108 36.9976 52.0117 37.3904 52.0076C38.1309 52.0154 38.8337 52.3689 39.2507 53.0417L41.7341 51.4993L39.2507 53.0437C39.4771 53.4089 39.5781 53.7939 39.5803 54.1873C39.5762 54.7034 39.3916 55.1958 39.0583 55.5928L34.917 58.1655C34.54 58.3997 34.1965 58.6716 33.873 58.9536ZM40.3108 66.8406C39.9436 67.0669 39.5583 67.1702 39.1633 67.1702C38.4248 67.1663 37.7183 66.8088 37.3032 66.1399C37.0767 65.7727 36.9756 65.3835 36.9736 64.9905C36.9753 64.4785 37.1602 63.9861 37.4917 63.593L41.6348 61.0144C42.01 60.782 42.3496 60.5122 42.6731 60.2302L42.824 60.1389C43.1912 59.9106 43.5784 59.8093 43.9695 59.8093C44.7119 59.8132 45.4126 60.1707 45.8293 60.8416C46.0557 61.2087 46.157 61.5918 46.1589 61.9871C46.155 62.7234 45.7998 63.4302 45.1248 63.8491L40.3108 66.8406ZM53.4109 70.9143L48.595 73.908C48.2297 74.1345 47.8445 74.2375 47.4475 74.2375C46.7109 74.2336 46.0042 73.8762 45.5894 73.2073C45.363 72.8381 45.262 72.4529 45.2598 72.0579C45.2659 71.3174 45.6211 70.6167 46.2881 70.1997L51.1101 67.2041C51.4773 66.9758 51.8625 66.8767 52.2554 66.8767C52.9958 66.8784 53.6987 67.2358 54.1157 67.907C54.3418 68.2744 54.4431 68.6594 54.4453 69.0544C54.4412 69.7905 54.0859 70.4932 53.4109 70.9143ZM60.8772 75.7976C61.0298 76.0417 61.0955 76.2959 61.0974 76.5618C61.0935 77.0562 60.8572 77.5266 60.4026 77.8105L56.2673 80.3792C56.0212 80.5339 55.7671 80.5994 55.499 80.5994C55.0029 80.5974 54.5325 80.3572 54.2524 79.9087C54.0996 79.6604 54.0339 79.4062 54.032 79.1406C54.0378 78.6421 54.2742 78.1755 54.7207 77.8977H54.7227L58.8618 75.3249C59.114 75.1682 59.3662 75.1025 59.6301 75.1025C60.1284 75.1064 60.595 75.3428 60.8748 75.7934L63.3601 74.2529L60.8772 75.7976ZM93.0349 57.6433C92.8225 58.0542 92.3381 58.5901 91.7249 58.9653C91.1113 59.3447 90.3987 59.5669 89.7158 59.5649C89.4734 59.5649 89.2393 59.6064 89.011 59.666C88.594 59.5747 88.177 59.4478 87.7664 59.2849C86.4939 58.7886 85.3049 57.9846 84.4651 57.3057C84.0442 56.9663 83.7107 56.6606 83.4883 56.4482L83.2422 56.2041L83.1885 56.1484L83.1804 56.1406H83.1787C82.3606 55.2512 80.9751 55.1916 80.0837 56.0095C79.1924 56.8276 79.1309 58.2131 79.9509 59.1104C80.0242 59.1858 81.1262 60.3887 82.9307 61.6277C83.8359 62.2471 84.9177 62.8784 86.1624 63.3667C86.4502 63.48 86.75 63.585 87.0579 63.6804C87.1433 63.8728 87.2524 64.0557 87.3813 64.2283L87.3755 64.2324C87.3914 64.2441 87.5105 64.6216 87.5005 65.1059C87.5146 65.9138 87.2207 66.9719 86.7979 67.5554C86.5916 67.8533 86.3811 68.0417 86.1768 68.1589C85.9683 68.2742 85.7578 68.3496 85.3628 68.3555L85.2217 68.3535C85.1382 68.3496 85.0591 68.3635 84.9775 68.3674C84.9736 68.3674 84.9717 68.3674 84.9717 68.3674C83.0698 68.3755 81.2993 67.5596 79.9929 66.6663C79.3418 66.2256 78.8196 65.7769 78.4683 65.4475C78.2954 65.2847 78.1626 65.1497 78.0811 65.0664L77.9958 64.9751L77.9819 64.9573H77.98C77.188 64.0481 75.8083 63.9487 74.8931 64.741C73.9758 65.5349 73.8767 66.9187 74.6707 67.8357L74.6687 67.834C74.7542 67.9292 75.7666 69.0962 77.5276 70.2954C78.6868 71.0793 80.1995 71.8914 81.9961 72.3599C81.9763 72.4116 81.9644 72.4631 81.9404 72.5149C81.7102 73.0349 81.3806 73.5708 80.4834 74.095C79.8777 74.4407 79.4451 74.6211 79.1414 74.7124C78.8357 74.8037 78.665 74.8218 78.4465 74.8235C78.1628 74.8276 77.7358 74.7639 77.0251 74.6189C76.8962 74.5913 76.7673 74.5833 76.6382 74.5754C76.5903 74.5554 76.5449 74.5376 76.4932 74.5117C75.7666 74.1702 74.8811 73.5527 74.228 73.0268C73.9004 72.7668 73.6226 72.5286 73.4319 72.3599L73.2175 72.1653L73.168 72.1177L73.158 72.1099C72.2825 71.2722 70.8928 71.304 70.0552 72.1792C69.2195 73.0547 69.2512 74.4443 70.1267 75.28C70.1724 75.3215 71.0955 76.2073 72.3896 77.1362C72.6199 77.2991 72.874 77.4639 73.1282 77.6265C72.7708 78.1963 72.3977 78.5874 72.0325 78.8474C71.4487 79.2485 70.8135 79.439 69.9956 79.4431C69.2632 79.4451 68.4014 79.2644 67.54 78.8992C67.2542 78.78 66.9744 78.6113 66.6924 78.4546C66.8572 77.8391 66.9485 77.2019 66.9465 76.5625C66.9485 75.2463 66.5872 73.9004 65.8447 72.7073C64.5842 70.6804 62.4819 69.4893 60.2803 69.2947C60.2803 69.2151 60.2939 69.136 60.2939 69.0544C60.2959 67.6113 59.8989 66.1304 59.085 64.8201V64.8242C57.5645 62.3745 54.9319 61.0205 52.2559 61.0264C52.1528 61.0264 52.0474 61.0442 51.9443 61.0483C51.8093 59.9106 51.436 58.7832 50.7971 57.7549H50.7988C49.5581 55.7559 47.5691 54.5015 45.4231 54.1082C45.4094 52.6887 45.0183 51.2415 44.218 49.9551H44.22C42.7014 47.5115 40.0669 46.1555 37.3909 46.1594C35.9436 46.1594 34.4688 46.5566 33.1565 47.3704L30.3396 49.1213C30.272 48.9665 30.1868 48.8157 30.1252 48.6606C29.635 47.4875 29.3271 46.3301 29.2935 45.5322L29.228 44.2974L19.8047 36.071L37.6709 17.5671C38.5842 18.3157 39.5212 19.0581 40.4822 19.7529C42.0742 20.9004 43.6523 21.9128 45.2644 22.5918C46.2988 23.0186 47.3071 23.1238 48.2324 23.1257C49.7134 23.1199 51.071 22.8657 52.4866 22.6592C52.5779 22.6433 52.6731 22.6355 52.7664 22.6213C50.821 24.2908 49.1235 26.0974 47.6882 27.7791C46.4792 29.1985 45.459 30.5364 44.6509 31.6282C43.853 32.7141 43.2375 33.5896 42.9675 33.9351C41.6375 35.666 41.0659 37.7366 41.054 39.811C41.0598 41.7407 41.572 43.7495 42.9021 45.447C43.5652 46.2866 44.4465 47.0212 45.4985 47.5215C46.5488 48.0256 47.7517 48.2837 49.0044 48.2837C50.5588 48.2795 52.1885 47.9026 53.9138 47.1777C59.3293 44.887 64.9116 43.3604 69.1121 42.4194C71.2124 41.9509 72.9692 41.6255 74.1941 41.4209C74.4246 41.3831 74.6169 41.3513 74.8076 41.3198L93.1843 57.1616L93.1921 57.1655L93.1982 57.1755C93.1958 57.2324 93.1677 57.3972 93.0349 57.6433ZM95.1611 44.2971L95.0974 45.532C95.0637 46.2385 94.8235 47.2351 94.4204 48.2676C94.2158 48.8074 93.9658 49.3516 93.7039 49.8872L77.6101 36.0149C76.9849 35.4751 76.1511 35.2249 75.3313 35.3281C75.1885 35.356 63.3845 36.8369 51.6382 41.7881C50.469 42.2822 49.5916 42.4351 49.0039 42.4312C48.5256 42.4312 48.2336 42.3457 48.0173 42.2424C47.7036 42.0896 47.4792 41.873 47.2571 41.4582C47.0447 41.0496 46.8997 40.446 46.9019 39.8108C46.8899 38.8977 47.2156 37.9685 47.5806 37.5281C48.0354 36.9404 48.5911 36.1384 49.3574 35.102C50.4946 33.5615 52.0393 31.5684 53.8813 29.6289C55.7195 27.6895 57.8577 25.8115 60.0989 24.4932C63.1304 22.7126 65.7131 22.2659 68.1609 22.2578C69.6675 22.2559 71.1125 22.4443 72.5222 22.6567C73.9355 22.8652 75.2974 23.1152 76.7744 23.1233C77.6975 23.1213 78.7 23.0161 79.7305 22.5952L79.7441 22.5913C81.3562 21.9124 82.9343 20.8999 84.5264 19.7524C85.4814 19.0615 86.4224 18.3152 87.3315 17.5688L104.918 35.7827L95.1611 44.2971Z" fill="url(#paint0_linear_267_21)"/>
<path d="M94.2954 0L82.1223 12.1731L83.2539 13.3484C82.4478 13.9995 81.6318 14.6348 80.8398 15.1987C79.5615 16.1118 78.3345 16.8442 77.5027 17.1877C77.449 17.2117 77.2229 17.2751 76.7742 17.2732C76.0574 17.281 74.8584 17.0984 73.3894 16.8743C71.9143 16.6519 70.1497 16.4099 68.1606 16.4077C66.4253 16.4019 64.5117 16.6123 62.4968 17.166C60.4861 16.6143 58.5762 16.4077 56.8452 16.4099C54.854 16.4099 53.0894 16.6521 51.6143 16.8765C50.1453 17.1006 48.9482 17.2834 48.2317 17.2754C47.781 17.2793 47.5566 17.2119 47.511 17.1899C46.6235 16.8267 45.2854 16.0166 43.908 15.0142C43.1953 14.4961 42.4688 13.9282 41.748 13.3447L42.8777 12.1733L30.7046 0.000244007L0 31.8022L12.1731 43.9753L15.7363 40.2849L23.6016 47.1494C23.8218 48.4656 24.2368 49.7083 24.7153 50.8877C25.0269 51.6382 25.3684 52.3606 25.718 53.0396C24.9575 54.2983 24.5427 55.7356 24.5466 57.1926C24.5447 58.6379 24.9417 60.1147 25.7576 61.427C26.9983 63.4221 28.9856 64.6768 31.1313 65.0737C31.1436 66.4932 31.5366 67.9404 32.3364 69.2268C33.8552 71.6687 36.4836 73.0225 39.1636 73.0183C39.2668 73.0183 39.3721 73.0024 39.4751 72.9985C39.6101 74.134 39.9834 75.2656 40.6226 76.2939C42.1414 78.7356 44.7715 80.0896 47.4475 80.0854C47.7136 80.0854 47.9778 80.0576 48.2456 80.0317C48.3726 81.0542 48.7122 82.0745 49.2859 82.9956C50.6697 85.2192 53.0637 86.4539 55.4993 86.448C56.8135 86.45 58.1594 86.0925 59.3545 85.3501L63.0034 83.0793C63.7222 83.5437 64.4763 83.9526 65.2683 84.2861C66.7434 84.9075 68.3374 85.2886 69.9951 85.2905C71.8135 85.2986 73.7332 84.8003 75.3848 83.6389C76.4607 82.8887 77.3718 81.8601 78.1182 80.6475C78.2334 80.6514 78.3267 80.6714 78.4458 80.6733C79.2021 80.6733 80.032 80.5601 80.854 80.304C81.6816 80.052 82.5037 79.6746 83.3811 79.1726C85.4734 77.9934 86.728 76.2583 87.3376 74.7715C87.4727 74.446 87.5698 74.1401 87.6572 73.8445C88.1636 73.6838 88.6479 73.4871 89.0864 73.2331C90.7043 72.302 91.7585 70.8867 92.4077 69.4653C93.0588 68.0298 93.3447 66.5391 93.3486 65.1059C93.3486 64.9648 93.3308 64.8279 93.3247 64.689C94.3828 64.2563 95.3335 63.6548 96.1436 62.946C96.9734 62.2192 97.6702 61.3738 98.1882 60.4089C98.7046 59.4482 99.05 58.3484 99.052 57.1436C99.054 56.3594 98.8931 55.5334 98.5417 54.7593C98.4285 54.5132 98.2678 54.2869 98.1208 54.0586C98.7385 52.9526 99.3674 51.7063 99.8835 50.3604C100.271 49.3418 100.596 48.2739 100.783 47.1521L108.984 39.9956L112.827 43.9758L125 31.8022L94.2954 0ZM33.873 58.9536L33.7319 59.043C33.3647 59.2695 32.9795 59.3706 32.5825 59.3726C31.8459 59.3687 31.1392 59.0093 30.7244 58.3403C30.498 57.9731 30.3948 57.5859 30.3948 57.1929C30.3987 56.4524 30.7561 55.7495 31.4231 55.3347L36.2451 52.3391C36.6123 52.1108 36.9976 52.0117 37.3904 52.0076C38.1309 52.0154 38.8337 52.3689 39.2507 53.0417L41.7341 51.4993L39.2507 53.0437C39.4771 53.4089 39.5781 53.7939 39.5803 54.1873C39.5762 54.7034 39.3916 55.1958 39.0583 55.5928L34.917 58.1655C34.54 58.3997 34.1965 58.6716 33.873 58.9536ZM40.3108 66.8406C39.9436 67.0669 39.5583 67.1702 39.1633 67.1702C38.4248 67.1663 37.7183 66.8088 37.3032 66.1399C37.0767 65.7727 36.9756 65.3835 36.9736 64.9905C36.9753 64.4785 37.1602 63.9861 37.4917 63.593L41.6348 61.0144C42.01 60.782 42.3496 60.5122 42.6731 60.2302L42.824 60.1389C43.1912 59.9106 43.5784 59.8093 43.9695 59.8093C44.7119 59.8132 45.4126 60.1707 45.8293 60.8416C46.0557 61.2087 46.157 61.5918 46.1589 61.9871C46.155 62.7234 45.7998 63.4302 45.1248 63.8491L40.3108 66.8406ZM53.4109 70.9143L48.595 73.908C48.2297 74.1345 47.8445 74.2375 47.4475 74.2375C46.7109 74.2336 46.0042 73.8762 45.5894 73.2073C45.363 72.8381 45.262 72.4529 45.2598 72.0579C45.2659 71.3174 45.6211 70.6167 46.2881 70.1997L51.1101 67.2041C51.4773 66.9758 51.8625 66.8767 52.2554 66.8767C52.9958 66.8784 53.6987 67.2358 54.1157 67.907C54.3418 68.2744 54.4431 68.6594 54.4453 69.0544C54.4412 69.7905 54.0859 70.4932 53.4109 70.9143ZM60.8772 75.7976C61.0298 76.0417 61.0955 76.2959 61.0974 76.5618C61.0935 77.0562 60.8572 77.5266 60.4026 77.8105L56.2673 80.3792C56.0212 80.5339 55.7671 80.5994 55.499 80.5994C55.0029 80.5974 54.5325 80.3572 54.2524 79.9087C54.0996 79.6604 54.0339 79.4062 54.032 79.1406C54.0378 78.6421 54.2742 78.1755 54.7207 77.8977H54.7227L58.8618 75.3249C59.114 75.1682 59.3662 75.1025 59.6301 75.1025C60.1284 75.1064 60.595 75.3428 60.8748 75.7934L63.3601 74.2529L60.8772 75.7976ZM93.0349 57.6433C92.8225 58.0542 92.3381 58.5901 91.7249 58.9653C91.1113 59.3447 90.3987 59.5669 89.7158 59.5649C89.4734 59.5649 89.2393 59.6064 89.011 59.666C88.594 59.5747 88.177 59.4478 87.7664 59.2849C86.4939 58.7886 85.3049 57.9846 84.4651 57.3057C84.0442 56.9663 83.7107 56.6606 83.4883 56.4482L83.2422 56.2041L83.1885 56.1484L83.1804 56.1406H83.1787C82.3606 55.2512 80.9751 55.1916 80.0837 56.0095C79.1924 56.8276 79.1309 58.2131 79.9509 59.1104C80.0242 59.1858 81.1262 60.3887 82.9307 61.6277C83.8359 62.2471 84.9177 62.8784 86.1624 63.3667C86.4502 63.48 86.75 63.585 87.0579 63.6804C87.1433 63.8728 87.2524 64.0557 87.3813 64.2283L87.3755 64.2324C87.3914 64.2441 87.5105 64.6216 87.5005 65.1059C87.5146 65.9138 87.2207 66.9719 86.7979 67.5554C86.5916 67.8533 86.3811 68.0417 86.1768 68.1589C85.9683 68.2742 85.7578 68.3496 85.3628 68.3555L85.2217 68.3535C85.1382 68.3496 85.0591 68.3635 84.9775 68.3674C84.9736 68.3674 84.9717 68.3674 84.9717 68.3674C83.0698 68.3755 81.2993 67.5596 79.9929 66.6663C79.3418 66.2256 78.8196 65.7769 78.4683 65.4475C78.2954 65.2847 78.1626 65.1497 78.0811 65.0664L77.9958 64.9751L77.9819 64.9573H77.98C77.188 64.0481 75.8083 63.9487 74.8931 64.741C73.9758 65.5349 73.8767 66.9187 74.6707 67.8357L74.6687 67.834C74.7542 67.9292 75.7666 69.0962 77.5276 70.2954C78.6868 71.0793 80.1995 71.8914 81.9961 72.3599C81.9763 72.4116 81.9644 72.4631 81.9404 72.5149C81.7102 73.0349 81.3806 73.5708 80.4834 74.095C79.8777 74.4407 79.4451 74.6211 79.1414 74.7124C78.8357 74.8037 78.665 74.8218 78.4465 74.8235C78.1628 74.8276 77.7358 74.7639 77.0251 74.6189C76.8962 74.5913 76.7673 74.5833 76.6382 74.5754C76.5903 74.5554 76.5449 74.5376 76.4932 74.5117C75.7666 74.1702 74.8811 73.5527 74.228 73.0268C73.9004 72.7668 73.6226 72.5286 73.4319 72.3599L73.2175 72.1653L73.168 72.1177L73.158 72.1099C72.2825 71.2722 70.8928 71.304 70.0552 72.1792C69.2195 73.0547 69.2512 74.4443 70.1267 75.28C70.1724 75.3215 71.0955 76.2073 72.3896 77.1362C72.6199 77.2991 72.874 77.4639 73.1282 77.6265C72.7708 78.1963 72.3977 78.5874 72.0325 78.8474C71.4487 79.2485 70.8135 79.439 69.9956 79.4431C69.2632 79.4451 68.4014 79.2644 67.54 78.8992C67.2542 78.78 66.9744 78.6113 66.6924 78.4546C66.8572 77.8391 66.9485 77.2019 66.9465 76.5625C66.9485 75.2463 66.5872 73.9004 65.8447 72.7073C64.5842 70.6804 62.4819 69.4893 60.2803 69.2947C60.2803 69.2151 60.2939 69.136 60.2939 69.0544C60.2959 67.6113 59.8989 66.1304 59.085 64.8201V64.8242C57.5645 62.3745 54.9319 61.0205 52.2559 61.0264C52.1528 61.0264 52.0474 61.0442 51.9443 61.0483C51.8093 59.9106 51.436 58.7832 50.7971 57.7549H50.7988C49.5581 55.7559 47.5691 54.5015 45.4231 54.1082C45.4094 52.6887 45.0183 51.2415 44.218 49.9551H44.22C42.7014 47.5115 40.0669 46.1555 37.3909 46.1594C35.9436 46.1594 34.4688 46.5566 33.1565 47.3704L30.3396 49.1213C30.272 48.9665 30.1868 48.8157 30.1252 48.6606C29.635 47.4875 29.3271 46.3301 29.2935 45.5322L29.228 44.2974L19.8047 36.071L37.6709 17.5671C38.5842 18.3157 39.5212 19.0581 40.4822 19.7529C42.0742 20.9004 43.6523 21.9128 45.2644 22.5918C46.2988 23.0186 47.3071 23.1238 48.2324 23.1257C49.7134 23.1199 51.071 22.8657 52.4866 22.6592C52.5779 22.6433 52.6731 22.6355 52.7664 22.6213C50.821 24.2908 49.1235 26.0974 47.6882 27.7791C46.4792 29.1985 45.459 30.5364 44.6509 31.6282C43.853 32.7141 43.2375 33.5896 42.9675 33.9351C41.6375 35.666 41.0659 37.7366 41.054 39.811C41.0598 41.7407 41.572 43.7495 42.9021 45.447C43.5652 46.2866 44.4465 47.0212 45.4985 47.5215C46.5488 48.0256 47.7517 48.2837 49.0044 48.2837C50.5588 48.2795 52.1885 47.9026 53.9138 47.1777C59.3293 44.887 64.9116 43.3604 69.1121 42.4194C71.2124 41.9509 72.9692 41.6255 74.1941 41.4209C74.4246 41.3831 74.6169 41.3513 74.8076 41.3198L93.1843 57.1616L93.1921 57.1655L93.1982 57.1755C93.1958 57.2324 93.1677 57.3972 93.0349 57.6433ZM95.1611 44.2971L95.0974 45.532C95.0637 46.2385 94.8235 47.2351 94.4204 48.2676C94.2158 48.8074 93.9658 49.3516 93.7039 49.8872L77.6101 36.0149C76.9849 35.4751 76.1511 35.2249 75.3313 35.3281C75.1885 35.356 63.3845 36.8369 51.6382 41.7881C50.469 42.2822 49.5916 42.4351 49.0039 42.4312C48.5256 42.4312 48.2336 42.3457 48.0173 42.2424C47.7036 42.0896 47.4792 41.873 47.2571 41.4582C47.0447 41.0496 46.8997 40.446 46.9019 39.8108C46.8899 38.8977 47.2156 37.9685 47.5806 37.5281C48.0354 36.9404 48.5911 36.1384 49.3574 35.102C50.4946 33.5615 52.0393 31.5684 53.8813 29.6289C55.7195 27.6895 57.8577 25.8115 60.0989 24.4932C63.1304 22.7126 65.7131 22.2659 68.1609 22.2578C69.6675 22.2559 71.1125 22.4443 72.5222 22.6567C73.9355 22.8652 75.2974 23.1152 76.7744 23.1233C77.6975 23.1213 78.7 23.0161 79.7305 22.5952L79.7441 22.5913C81.3562 21.9124 82.9343 20.8999 84.5264 19.7524C85.4814 19.0615 86.4224 18.3152 87.3315 17.5688L104.918 35.7827L95.1611 44.2971Z" fill="black" fill-opacity="0.1"/>
<defs>
<linearGradient id="paint0_linear_267_21" x1="62.5" y1="0" x2="62.5" y2="86.448" gradientUnits="userSpaceOnUse">
<stop stop-color="#9E00D1"/>
<stop offset="1" stop-color="#4E31FF"/>
</linearGradient>
</defs>
</svg>
