<svg width="101" height="73" viewBox="0 0 101 73" fill="none" xmlns="http://www.w3.org/2000/svg">
<path fill-rule="evenodd" clip-rule="evenodd" d="M49.8874 27.24C49.7733 27.1627 49.6566 27.0869 49.5384 27.0126L24.6752 11.4733C18.2867 7.48046 10 12.0734 10 19.607V52.8467C10 60.38 18.2867 64.973 24.6752 60.9803L49.5384 45.4406C49.6566 45.3668 49.7733 45.2911 49.8874 45.2138V49.5226C49.8874 56.313 57.2232 60.5704 63.1191 57.2009L85.2681 44.5447C91.7044 40.867 91.7044 31.5867 85.2681 27.9091L63.1191 15.2523C57.2232 11.8833 49.8874 16.1404 49.8874 22.931V27.24Z" fill="url(#paint0_linear_291_315)"/>
<path fill-rule="evenodd" clip-rule="evenodd" d="M49.8874 27.24C49.7733 27.1627 49.6566 27.0869 49.5384 27.0126L24.6752 11.4733C18.2867 7.48046 10 12.0734 10 19.607V52.8467C10 60.38 18.2867 64.973 24.6752 60.9803L49.5384 45.4406C49.6566 45.3668 49.7733 45.2911 49.8874 45.2138V49.5226C49.8874 56.313 57.2232 60.5704 63.1191 57.2009L85.2681 44.5447C91.7044 40.867 91.7044 31.5867 85.2681 27.9091L63.1191 15.2523C57.2232 11.8833 49.8874 16.1404 49.8874 22.931V27.24Z" fill="black" fill-opacity="0.1"/>
<defs>
<linearGradient id="paint0_linear_291_315" x1="50.0477" y1="10" x2="50.0477" y2="62.4535" gradientUnits="userSpaceOnUse">
<stop stop-color="#9E00D1"/>
<stop offset="1" stop-color="#4E31FF"/>
</linearGradient>
</defs>
</svg>
