<svg width="156" height="156" viewBox="0 0 156 156" fill="none" xmlns="http://www.w3.org/2000/svg">
<path fill-rule="evenodd" clip-rule="evenodd" d="M126.431 8.63629C124.3 7.38874 121.573 8.12912 120.343 10.2899L106.711 34.229C97.4241 29.882 87.8106 27.6593 78.079 27.6593C51.9314 27.6593 26.6369 43.7155 6.23947 73.8996L6.15857 74.0182L6.08782 74.1207C5.40839 75.0935 5.39105 76.2373 6.08442 77.199C21.1359 99.556 38.872 114.198 57.6552 120.352L46.7962 139.409C45.5652 141.57 46.2957 144.333 48.4275 145.58L50.3576 146.71C52.4894 147.957 55.2153 147.217 56.4462 145.056L129.992 15.9371C131.224 13.7763 130.493 11.0134 128.361 9.76579L126.431 8.63629ZM100.798 44.6103C93.2394 41.2824 85.6071 39.6603 78.079 39.6603C59.0804 39.6603 39.413 49.9926 21.9462 72.0042C20.2694 74.1174 20.2694 77.1979 21.9462 79.3111C35.0392 95.8114 49.3684 105.751 63.7259 109.695L71.2334 96.5146C62.6573 93.779 55.5656 86.1489 55.5656 75.6696C55.5656 62.4141 65.7254 51.6672 78.2561 51.6672C84.0404 51.6672 89.3193 53.9571 93.3274 57.7263L100.798 44.6103ZM87.1314 68.6045C85.2015 65.6126 82.0286 63.6682 78.2561 63.6682C71.9855 63.6682 66.857 69.0329 66.857 75.6607C66.857 80.0409 71.5548 85.1594 77.4561 85.5901L87.1314 68.6045Z" fill="url(#paint0_linear_267_14)"/>
<path fill-rule="evenodd" clip-rule="evenodd" d="M126.431 8.63629C124.3 7.38874 121.573 8.12912 120.343 10.2899L106.711 34.229C97.4241 29.882 87.8106 27.6593 78.079 27.6593C51.9314 27.6593 26.6369 43.7155 6.23947 73.8996L6.15857 74.0182L6.08782 74.1207C5.40839 75.0935 5.39105 76.2373 6.08442 77.199C21.1359 99.556 38.872 114.198 57.6552 120.352L46.7962 139.409C45.5652 141.57 46.2957 144.333 48.4275 145.58L50.3576 146.71C52.4894 147.957 55.2153 147.217 56.4462 145.056L129.992 15.9371C131.224 13.7763 130.493 11.0134 128.361 9.76579L126.431 8.63629ZM100.798 44.6103C93.2394 41.2824 85.6071 39.6603 78.079 39.6603C59.0804 39.6603 39.413 49.9926 21.9462 72.0042C20.2694 74.1174 20.2694 77.1979 21.9462 79.3111C35.0392 95.8114 49.3684 105.751 63.7259 109.695L71.2334 96.5146C62.6573 93.779 55.5656 86.1489 55.5656 75.6696C55.5656 62.4141 65.7254 51.6672 78.2561 51.6672C84.0404 51.6672 89.3193 53.9571 93.3274 57.7263L100.798 44.6103ZM87.1314 68.6045C85.2015 65.6126 82.0286 63.6682 78.2561 63.6682C71.9855 63.6682 66.857 69.0329 66.857 75.6607C66.857 80.0409 71.5548 85.1594 77.4561 85.5901L87.1314 68.6045Z" fill="black" fill-opacity="0.1"/>
<path d="M81.8292 123.553C106.588 122.097 130.403 106.24 149.796 77.6159C150.202 77.0164 150.429 76.3963 150.429 75.6587C150.429 74.9555 150.234 74.3683 149.847 73.7967C142.394 62.7775 134.285 53.6468 125.72 46.4971L119.819 56.8579C124.737 61.0927 129.553 66.1332 134.212 72.0049C135.889 74.1182 135.889 77.1986 134.212 79.3118C120.162 97.0184 104.689 107.171 89.2844 110.465L81.8292 123.553Z" fill="url(#paint1_linear_267_14)"/>
<path d="M81.8292 123.553C106.588 122.097 130.403 106.24 149.796 77.6159C150.202 77.0164 150.429 76.3963 150.429 75.6587C150.429 74.9555 150.234 74.3683 149.847 73.7967C142.394 62.7775 134.285 53.6468 125.72 46.4971L119.819 56.8579C124.737 61.0927 129.553 66.1332 134.212 72.0049C135.889 74.1182 135.889 77.1986 134.212 79.3118C120.162 97.0184 104.689 107.171 89.2844 110.465L81.8292 123.553Z" fill="black" fill-opacity="0.1"/>
<defs>
<linearGradient id="paint0_linear_267_14" x1="68.081" y1="8.03027" x2="68.081" y2="147.316" gradientUnits="userSpaceOnUse">
<stop stop-color="#9E00D1"/>
<stop offset="1" stop-color="#4E31FF"/>
</linearGradient>
<linearGradient id="paint1_linear_267_14" x1="116.129" y1="46.4971" x2="116.129" y2="123.553" gradientUnits="userSpaceOnUse">
<stop stop-color="#9E00D1"/>
<stop offset="1" stop-color="#4E31FF"/>
</linearGradient>
</defs>
</svg>
