<svg width="294" height="294" viewBox="0 0 294 294" fill="none" xmlns="http://www.w3.org/2000/svg">
<path d="M79.625 98C89.7733 98 98 89.7733 98 79.625C98 69.4767 89.7733 61.25 79.625 61.25C69.4767 61.25 61.25 69.4767 61.25 79.625C61.25 89.7733 69.4767 98 79.625 98Z" fill="url(#paint0_linear_257_2)"/>
<path d="M79.625 98C89.7733 98 98 89.7733 98 79.625C98 69.4767 89.7733 61.25 79.625 61.25C69.4767 61.25 61.25 69.4767 61.25 79.625C61.25 89.7733 69.4767 98 79.625 98Z" fill="black" fill-opacity="0.1"/>
<path d="M61.25 122.5C61.25 115.735 66.7346 110.25 73.5 110.25H85.75C92.5154 110.25 98 115.734 98 122.5V220.5C98 227.266 92.5154 232.75 85.75 232.75H73.5C66.7346 232.75 61.25 227.266 61.25 220.5V122.5Z" fill="url(#paint1_linear_257_2)"/>
<path d="M61.25 122.5C61.25 115.735 66.7346 110.25 73.5 110.25H85.75C92.5154 110.25 98 115.734 98 122.5V220.5C98 227.266 92.5154 232.75 85.75 232.75H73.5C66.7346 232.75 61.25 227.266 61.25 220.5V122.5Z" fill="black" fill-opacity="0.1"/>
<path d="M134.75 232.75H147C153.766 232.75 159.25 227.266 159.25 220.5V165.375C159.25 147 196 134.75 196 159.25V220.505C196 227.271 201.484 232.75 208.25 232.75H220.5C227.266 232.75 232.75 227.266 232.75 220.5V147C232.75 122.5 214.375 110.25 189.875 110.25C165.375 110.25 159.25 128.625 159.25 128.625V122.5C159.25 115.734 153.766 110.25 147 110.25H134.75C127.984 110.25 122.5 115.735 122.5 122.5V220.5C122.5 227.266 127.984 232.75 134.75 232.75Z" fill="url(#paint2_linear_257_2)"/>
<path d="M134.75 232.75H147C153.766 232.75 159.25 227.266 159.25 220.5V165.375C159.25 147 196 134.75 196 159.25V220.505C196 227.271 201.484 232.75 208.25 232.75H220.5C227.266 232.75 232.75 227.266 232.75 220.5V147C232.75 122.5 214.375 110.25 189.875 110.25C165.375 110.25 159.25 128.625 159.25 128.625V122.5C159.25 115.734 153.766 110.25 147 110.25H134.75C127.984 110.25 122.5 115.735 122.5 122.5V220.5C122.5 227.266 127.984 232.75 134.75 232.75Z" fill="black" fill-opacity="0.1"/>
<path fill-rule="evenodd" clip-rule="evenodd" d="M245 12.25C265.297 12.25 281.75 28.7036 281.75 49V245C281.75 265.297 265.297 281.75 245 281.75H49C28.7036 281.75 12.25 265.297 12.25 245V49C12.25 28.7036 28.7036 12.25 49 12.25H245ZM245 36.75C251.766 36.75 257.25 42.2346 257.25 49V245C257.25 251.766 251.766 257.25 245 257.25H49C42.2346 257.25 36.75 251.766 36.75 245V49C36.75 42.2346 42.2346 36.75 49 36.75H245Z" fill="url(#paint3_linear_257_2)"/>
<path fill-rule="evenodd" clip-rule="evenodd" d="M245 12.25C265.297 12.25 281.75 28.7036 281.75 49V245C281.75 265.297 265.297 281.75 245 281.75H49C28.7036 281.75 12.25 265.297 12.25 245V49C12.25 28.7036 28.7036 12.25 49 12.25H245ZM245 36.75C251.766 36.75 257.25 42.2346 257.25 49V245C257.25 251.766 251.766 257.25 245 257.25H49C42.2346 257.25 36.75 251.766 36.75 245V49C36.75 42.2346 42.2346 36.75 49 36.75H245Z" fill="black" fill-opacity="0.1"/>
<defs>
<linearGradient id="paint0_linear_257_2" x1="79.625" y1="61.25" x2="79.625" y2="98" gradientUnits="userSpaceOnUse">
<stop stop-color="#9E00D1"/>
<stop offset="1" stop-color="#4E31FF"/>
</linearGradient>
<linearGradient id="paint1_linear_257_2" x1="79.625" y1="110.25" x2="79.625" y2="232.75" gradientUnits="userSpaceOnUse">
<stop stop-color="#9E00D1"/>
<stop offset="1" stop-color="#4E31FF"/>
</linearGradient>
<linearGradient id="paint2_linear_257_2" x1="177.625" y1="110.25" x2="177.625" y2="232.75" gradientUnits="userSpaceOnUse">
<stop stop-color="#9E00D1"/>
<stop offset="1" stop-color="#4E31FF"/>
</linearGradient>
<linearGradient id="paint3_linear_257_2" x1="147" y1="12.25" x2="147" y2="281.75" gradientUnits="userSpaceOnUse">
<stop stop-color="#9E00D1"/>
<stop offset="1" stop-color="#4E31FF"/>
</linearGradient>
</defs>
</svg>
