<svg width="128" height="100" viewBox="0 0 128 100" fill="none" xmlns="http://www.w3.org/2000/svg">
<path d="M96.8984 22.2728C85.2974 22.2728 75.9901 31.7043 75.9901 43.3053C75.9901 54.8421 85.3574 64.2093 96.8984 64.2093C108.435 64.2093 117.867 54.8421 117.867 43.2411C117.867 31.6401 108.499 22.2728 96.8984 22.2728ZM98.4689 54.6795V57.9659H95.5762V54.7822C93.0728 54.7822 90.5481 54.1189 89.3285 53.4385L90.3855 49.1978C91.7291 49.8611 93.8388 50.6442 96.0725 50.6442C98.4689 50.6442 99.65 49.5915 99.65 48.1451C99.65 46.6944 98.5117 46.0953 95.7388 45.0212C91.896 43.6776 89.4954 41.7348 89.4954 38.2815C89.4954 35.0934 91.605 32.5944 95.4735 31.807V28.3536H98.3662V31.6401C100.767 31.6401 102.504 32.1365 103.784 32.8212L102.607 36.9549C101.653 36.5655 100.104 35.9022 97.9725 35.9022C95.8415 35.9022 94.6861 36.9549 94.6861 38.0119C94.6861 39.4582 96.0298 40.0188 98.9268 41.1956C102.872 42.642 104.717 44.649 104.717 47.9354C104.717 51.2261 102.71 53.7252 98.4689 54.6795ZM90.8776 68.6255H70.7652V50.6527C70.7652 41.8974 63.1139 34.8196 54.5041 34.8196H27.5449C18.0921 34.8196 9.99577 43.01 10 51.0806V84.0307C9.98721 87.6809 12.5676 89.5895 15.1351 89.5938C17.7069 89.598 20.2702 87.6895 20.2702 84.0307V51.9365H23.6936V89.5938H57.0716V51.9365H60.495L60.5292 73.491C60.5078 77.2268 62.8143 78.8186 65.2022 78.8957H90.8776C97.8784 78.8957 97.8784 68.6255 90.8776 68.6255ZM40.8191 10C34.6442 10 29.7359 14.9468 29.7359 21.0832C29.7359 27.2196 34.6827 32.1707 40.8191 32.1707C46.917 32.1707 51.8638 27.2582 51.9066 21.0832C51.9066 14.9468 46.9555 10 40.8191 10Z" fill="url(#paint0_linear_291_317)"/>
<path d="M96.8984 22.2728C85.2974 22.2728 75.9901 31.7043 75.9901 43.3053C75.9901 54.8421 85.3574 64.2093 96.8984 64.2093C108.435 64.2093 117.867 54.8421 117.867 43.2411C117.867 31.6401 108.499 22.2728 96.8984 22.2728ZM98.4689 54.6795V57.9659H95.5762V54.7822C93.0728 54.7822 90.5481 54.1189 89.3285 53.4385L90.3855 49.1978C91.7291 49.8611 93.8388 50.6442 96.0725 50.6442C98.4689 50.6442 99.65 49.5915 99.65 48.1451C99.65 46.6944 98.5117 46.0953 95.7388 45.0212C91.896 43.6776 89.4954 41.7348 89.4954 38.2815C89.4954 35.0934 91.605 32.5944 95.4735 31.807V28.3536H98.3662V31.6401C100.767 31.6401 102.504 32.1365 103.784 32.8212L102.607 36.9549C101.653 36.5655 100.104 35.9022 97.9725 35.9022C95.8415 35.9022 94.6861 36.9549 94.6861 38.0119C94.6861 39.4582 96.0298 40.0188 98.9268 41.1956C102.872 42.642 104.717 44.649 104.717 47.9354C104.717 51.2261 102.71 53.7252 98.4689 54.6795ZM90.8776 68.6255H70.7652V50.6527C70.7652 41.8974 63.1139 34.8196 54.5041 34.8196H27.5449C18.0921 34.8196 9.99577 43.01 10 51.0806V84.0307C9.98721 87.6809 12.5676 89.5895 15.1351 89.5938C17.7069 89.598 20.2702 87.6895 20.2702 84.0307V51.9365H23.6936V89.5938H57.0716V51.9365H60.495L60.5292 73.491C60.5078 77.2268 62.8143 78.8186 65.2022 78.8957H90.8776C97.8784 78.8957 97.8784 68.6255 90.8776 68.6255ZM40.8191 10C34.6442 10 29.7359 14.9468 29.7359 21.0832C29.7359 27.2196 34.6827 32.1707 40.8191 32.1707C46.917 32.1707 51.8638 27.2582 51.9066 21.0832C51.9066 14.9468 46.9555 10 40.8191 10Z" fill="black" fill-opacity="0.1"/>
<defs>
<linearGradient id="paint0_linear_291_317" x1="63.9333" y1="10" x2="63.9333" y2="89.5938" gradientUnits="userSpaceOnUse">
<stop stop-color="#9E00D1"/>
<stop offset="1" stop-color="#4E31FF"/>
</linearGradient>
</defs>
</svg>
