<svg width="98" height="98" viewBox="0 0 98 98" fill="none" xmlns="http://www.w3.org/2000/svg">
<rect width="98" height="98" fill="black"/>
<path d="M79.2981 15.6378L49.9797 8.16533C49.6557 8.10635 49.3237 8.10635 48.9997 8.16533C48.729 8.12447 48.4538 8.12447 48.1831 8.16533L18.7014 15.6378C16.8321 16.1045 15.188 17.217 14.0597 18.7787C12.9313 20.3404 12.3915 22.2507 12.5356 24.172L14.2506 46.6712C14.9374 55.5962 18.056 64.1627 23.2678 71.4404C28.4796 78.7182 35.5854 84.4293 43.8139 87.9537L47.4072 89.5053C47.8601 89.694 48.3458 89.7912 48.8364 89.7912C49.327 89.7912 49.8127 89.694 50.2656 89.5053L53.8589 87.9537C62.0874 84.4293 69.1932 78.7182 74.405 71.4404C79.6168 64.1627 82.7354 55.5962 83.4222 46.6712L85.1372 24.172C85.2982 22.2942 84.8047 20.4185 83.7404 18.863C82.6761 17.3076 81.1067 16.1681 79.2981 15.6378ZM64.1489 39.6478L47.8156 55.9812C47.436 56.3639 46.9843 56.6677 46.4868 56.875C45.9892 57.0823 45.4555 57.189 44.9164 57.189C44.3774 57.189 43.8436 57.0823 43.346 56.875C42.8485 56.6677 42.3968 56.3639 42.0172 55.9812L33.8506 47.8145C33.0817 47.0456 32.6497 46.0027 32.6497 44.9153C32.6497 43.8279 33.0817 42.7851 33.8506 42.0162C34.6195 41.2473 35.6623 40.8153 36.7497 40.8153C37.8371 40.8153 38.88 41.2473 39.6489 42.0162L44.9164 47.3245L58.3506 33.8495C59.1195 33.0806 60.1623 32.6486 61.2497 32.6486C62.3371 32.6486 63.38 33.0806 64.1489 33.8495C64.9178 34.6184 65.3498 35.6613 65.3498 36.7487C65.3498 37.8361 64.9178 38.8789 64.1489 39.6478Z" fill="url(#paint0_linear_291_312)"/>
<path d="M79.2981 15.6378L49.9797 8.16533C49.6557 8.10635 49.3237 8.10635 48.9997 8.16533C48.729 8.12447 48.4538 8.12447 48.1831 8.16533L18.7014 15.6378C16.8321 16.1045 15.188 17.217 14.0597 18.7787C12.9313 20.3404 12.3915 22.2507 12.5356 24.172L14.2506 46.6712C14.9374 55.5962 18.056 64.1627 23.2678 71.4404C28.4796 78.7182 35.5854 84.4293 43.8139 87.9537L47.4072 89.5053C47.8601 89.694 48.3458 89.7912 48.8364 89.7912C49.327 89.7912 49.8127 89.694 50.2656 89.5053L53.8589 87.9537C62.0874 84.4293 69.1932 78.7182 74.405 71.4404C79.6168 64.1627 82.7354 55.5962 83.4222 46.6712L85.1372 24.172C85.2982 22.2942 84.8047 20.4185 83.7404 18.863C82.6761 17.3076 81.1067 16.1681 79.2981 15.6378ZM64.1489 39.6478L47.8156 55.9812C47.436 56.3639 46.9843 56.6677 46.4868 56.875C45.9892 57.0823 45.4555 57.189 44.9164 57.189C44.3774 57.189 43.8436 57.0823 43.346 56.875C42.8485 56.6677 42.3968 56.3639 42.0172 55.9812L33.8506 47.8145C33.0817 47.0456 32.6497 46.0027 32.6497 44.9153C32.6497 43.8279 33.0817 42.7851 33.8506 42.0162C34.6195 41.2473 35.6623 40.8153 36.7497 40.8153C37.8371 40.8153 38.88 41.2473 39.6489 42.0162L44.9164 47.3245L58.3506 33.8495C59.1195 33.0806 60.1623 32.6486 61.2497 32.6486C62.3371 32.6486 63.38 33.0806 64.1489 33.8495C64.9178 34.6184 65.3498 35.6613 65.3498 36.7487C65.3498 37.8361 64.9178 38.8789 64.1489 39.6478Z" fill="black" fill-opacity="0.1"/>
<defs>
<linearGradient id="paint0_linear_291_312" x1="48.8399" y1="8.12109" x2="48.8399" y2="89.7912" gradientUnits="userSpaceOnUse">
<stop stop-color="#9E00D1"/>
<stop offset="1" stop-color="#4E31FF"/>
</linearGradient>
</defs>
</svg>
